<?xml version="1.0" encoding="UTF-8" standalone="no"?><!DOCTYPE svg PUBLIC "-//W3C//DTD SVG 1.1//EN" "http://www.w3.org/Graphics/SVG/1.1/DTD/svg11.dtd"><!-- Generated by graphviz version 2.40.1 (20161225.0304)
 --><!-- Title: indexes Pages: 1 --><svg xmlns="http://www.w3.org/2000/svg" xmlns:xlink="http://www.w3.org/1999/xlink" width="2597pt" height="700pt" viewBox="0.00 0.00 2596.50 700.20">
<g id="graph0" class="graph" transform="scale(1 1) rotate(0) translate(36 664.2)">
<polygon fill="#ffffff" stroke="transparent" points="-36,36 -36,-664.2 2560.504,-664.2 2560.504,36 -36,36"/>
<!-- /tmp/capi_in/lookup_bigtest/olist_orders_dataset00.csv -->
<g id="node1" class="node">
<title>/tmp/capi_in/lookup_bigtest/olist_orders_dataset00.csv</title>
<g id="a_node1"><a xlink:title="Source data file(s)">
<polygon fill="none" stroke="#000000" points="852.0921,-628.2 849.0921,-632.2 828.0921,-632.2 825.0921,-628.2 350.7119,-628.2 350.7119,-524.2 852.0921,-524.2 852.0921,-628.2"/>
<text text-anchor="middle" x="601.402" y="-606.2" font-family="Helvetica,sans-Serif" font-size="20.00" fill="#000000">/tmp/capi_in/lookup_bigtest/olist_orders_dataset00.csv</text>
<text text-anchor="middle" x="601.402" y="-582.2" font-family="Helvetica,sans-Serif" font-size="20.00" fill="#000000">/tmp/capi_in/lookup_bigtest/olist_orders_dataset01.csv</text>
<text text-anchor="middle" x="601.402" y="-558.2" font-family="Helvetica,sans-Serif" font-size="20.00" fill="#000000">...</text>
<text text-anchor="middle" x="601.402" y="-534.2" font-family="Helvetica,sans-Serif" font-size="20.00" fill="#000000">/tmp/capi_in/lookup_bigtest/olist_orders_dataset09.csv</text>
</a>
</g>
</g>
<!-- orders -->
<g id="node2" class="node">
<title>orders</title>
<g id="a_node2"><a xlink:title="Load order data from CSV file">
<polygon fill="#ffffff" stroke="#000000" stroke-width="6" points="533.384,-398.7 533.384,-486.7 669.42,-486.7 669.42,-398.7 533.384,-398.7"/>
<text text-anchor="middle" x="601.402" y="-464.7" font-family="Helvetica,sans-Serif" font-size="20.00" fill="#000000">read_orders</text>
<polyline fill="none" stroke="#000000" stroke-width="6" points="533.384,-454.7 669.42,-454.7 "/>
<text text-anchor="middle" x="601.402" y="-432.7" font-family="Helvetica,sans-Serif" font-size="20.00" fill="#000000">creates table:</text>
<text text-anchor="middle" x="601.402" y="-408.7" font-family="Helvetica,sans-Serif" font-size="20.00" fill="#000000">orders</text>
</a>
</g>
</g>
<!-- /tmp/capi_in/lookup_bigtest/olist_orders_dataset00.csv&#45;&gt;orders -->
<g id="edge1" class="edge">
<title>/tmp/capi_in/lookup_bigtest/olist_orders_dataset00.csv-&gt;orders</title>
<path fill="none" stroke="#000000" stroke-dasharray="1,5" d="M601.402,-523.8204C601.402,-514.9998 601.402,-505.8278 601.402,-496.9606"/>
<polygon fill="#000000" stroke="#000000" points="604.9021,-496.7308 601.402,-486.7308 597.9021,-496.7308 604.9021,-496.7308"/>
</g>
<!-- order_item_date_left_outer -->
<g id="node5" class="node">
<title>order_item_date_left_outer</title>
<g id="a_node5"><a xlink:title="For each order, look up order items and perform left outer join without grouping or aggregation">
<polygon fill="#ffffff" stroke="#000000" points="1340.368,-220.1 1340.368,-340.1 1596.436,-340.1 1596.436,-220.1 1340.368,-220.1"/>
<text text-anchor="middle" x="1468.402" y="-318.1" font-family="Helvetica,sans-Serif" font-size="20.00" fill="#000000">order_item_date_left_outer</text>
<polyline fill="none" stroke="#000000" points="1340.368,-308.1 1596.436,-308.1 "/>
<text text-anchor="middle" x="1468.402" y="-286.1" font-family="Helvetica,sans-Serif" font-size="20.00" fill="#000000">creates table:</text>
<text text-anchor="middle" x="1468.402" y="-262.1" font-family="Helvetica,sans-Serif" font-size="20.00" fill="#000000">order_item_date_left_outer</text>
<polyline fill="none" stroke="#000000" points="1340.368,-252.1 1596.436,-252.1 "/>
<text text-anchor="middle" x="1468.402" y="-230.1" font-family="Helvetica,sans-Serif" font-size="20.00" fill="#000000">group:false, join:left</text>
</a>
</g>
</g>
<!-- orders&#45;&gt;order_item_date_left_outer -->
<g id="edge9" class="edge">
<title>orders-&gt;order_item_date_left_outer</title>
<path fill="none" stroke="#000000" d="M669.68,-435.6433C767.3117,-424.9363 941.5164,-403.3678 1000.402,-380.2 1016.3568,-373.9228 1016.4822,-365.0582 1032.3646,-358.6 1127.5587,-319.8914 1242.1514,-300.2051 1329.9684,-290.2291"/>
<polygon fill="#000000" stroke="#000000" points="1330.4456,-293.6977 1339.9997,-289.1184 1329.6752,-286.7402 1330.4456,-293.6977"/>
<text text-anchor="middle" x="1115.4207" y="-364" font-family="Helvetica,sans-Serif" font-size="18.00" fill="#000000">orders (100 batches)</text>
</g>
<!-- order_date_value_grouped_inner -->
<g id="node8" class="node">
<title>order_date_value_grouped_inner</title>
<g id="a_node8"><a xlink:title="For each order, look up order items and perform inner join with grouping and aggregation">
<polygon fill="#ffffff" stroke="#000000" points="696.571,-220.1 696.571,-340.1 1008.233,-340.1 1008.233,-220.1 696.571,-220.1"/>
<text text-anchor="middle" x="852.402" y="-318.1" font-family="Helvetica,sans-Serif" font-size="20.00" fill="#000000">order_date_value_grouped_inner</text>
<polyline fill="none" stroke="#000000" points="696.571,-308.1 1008.233,-308.1 "/>
<text text-anchor="middle" x="852.402" y="-286.1" font-family="Helvetica,sans-Serif" font-size="20.00" fill="#000000">creates table:</text>
<text text-anchor="middle" x="852.402" y="-262.1" font-family="Helvetica,sans-Serif" font-size="20.00" fill="#000000">order_date_value_grouped_inner</text>
<polyline fill="none" stroke="#000000" points="696.571,-252.1 1008.233,-252.1 "/>
<text text-anchor="middle" x="852.402" y="-230.1" font-family="Helvetica,sans-Serif" font-size="20.00" fill="#000000">group:true, join:inner</text>
</a>
</g>
</g>
<!-- orders&#45;&gt;order_date_value_grouped_inner -->
<g id="edge11" class="edge">
<title>orders-&gt;order_date_value_grouped_inner</title>
<path fill="none" stroke="#000000" d="M533.3349,-408.4887C513.412,-393.949 500.3145,-376.2867 514.3646,-358.6 536.8251,-330.326 612.3647,-311.3191 686.3521,-299.0998"/>
<polygon fill="#000000" stroke="#000000" points="686.9883,-302.5425 696.3034,-297.4948 685.8737,-295.6318 686.9883,-302.5425"/>
<text text-anchor="middle" x="597.4207" y="-364" font-family="Helvetica,sans-Serif" font-size="18.00" fill="#000000">orders (100 batches)</text>
</g>
<!-- order_item_date_inner -->
<g id="node11" class="node">
<title>order_item_date_inner</title>
<g id="a_node11"><a xlink:title="For each order, look up order items and perform inner join without grouping or aggregation">
<polygon fill="#ffffff" stroke="#000000" points="202.823,-220.1 202.823,-340.1 419.981,-340.1 419.981,-220.1 202.823,-220.1"/>
<text text-anchor="middle" x="311.402" y="-318.1" font-family="Helvetica,sans-Serif" font-size="20.00" fill="#000000">order_item_date_inner</text>
<polyline fill="none" stroke="#000000" points="202.823,-308.1 419.981,-308.1 "/>
<text text-anchor="middle" x="311.402" y="-286.1" font-family="Helvetica,sans-Serif" font-size="20.00" fill="#000000">creates table:</text>
<text text-anchor="middle" x="311.402" y="-262.1" font-family="Helvetica,sans-Serif" font-size="20.00" fill="#000000">order_item_date_inner</text>
<polyline fill="none" stroke="#000000" points="202.823,-252.1 419.981,-252.1 "/>
<text text-anchor="middle" x="311.402" y="-230.1" font-family="Helvetica,sans-Serif" font-size="20.00" fill="#000000">group:false, join:inner</text>
</a>
</g>
</g>
<!-- orders&#45;&gt;order_item_date_inner -->
<g id="edge7" class="edge">
<title>orders-&gt;order_item_date_inner</title>
<path fill="none" stroke="#000000" d="M533.0805,-434.9637C463.4457,-425.6823 361.8692,-407.8263 334.3646,-380.2 326.143,-371.9421 320.6227,-361.3765 316.9603,-350.2197"/>
<polygon fill="#000000" stroke="#000000" points="320.2539,-349.0003 314.1988,-340.3063 313.5107,-350.8787 320.2539,-349.0003"/>
<text text-anchor="middle" x="417.4207" y="-364" font-family="Helvetica,sans-Serif" font-size="18.00" fill="#000000">orders (100 batches)</text>
</g>
<!-- order_date_value_grouped_left_outer -->
<g id="node12" class="node">
<title>order_date_value_grouped_left_outer</title>
<g id="a_node12"><a xlink:title="For each order, look up order items and perform left outer join with grouping and aggregation">
<polygon fill="#ffffff" stroke="#000000" points="1909.116,-220.1 1909.116,-340.1 2259.688,-340.1 2259.688,-220.1 1909.116,-220.1"/>
<text text-anchor="middle" x="2084.402" y="-318.1" font-family="Helvetica,sans-Serif" font-size="20.00" fill="#000000">order_date_value_grouped_left_outer</text>
<polyline fill="none" stroke="#000000" points="1909.116,-308.1 2259.688,-308.1 "/>
<text text-anchor="middle" x="2084.402" y="-286.1" font-family="Helvetica,sans-Serif" font-size="20.00" fill="#000000">creates table:</text>
<text text-anchor="middle" x="2084.402" y="-262.1" font-family="Helvetica,sans-Serif" font-size="20.00" fill="#000000">order_date_value_grouped_left_outer</text>
<polyline fill="none" stroke="#000000" points="1909.116,-252.1 2259.688,-252.1 "/>
<text text-anchor="middle" x="2084.402" y="-230.1" font-family="Helvetica,sans-Serif" font-size="20.00" fill="#000000">group:true, join:left</text>
</a>
</g>
</g>
<!-- orders&#45;&gt;order_date_value_grouped_left_outer -->
<g id="edge13" class="edge">
<title>orders-&gt;order_date_value_grouped_left_outer</title>
<path fill="none" stroke="#000000" d="M669.7148,-440.1184C869.3055,-432.2889 1442.5,-407.6599 1522.402,-380.2 1538.6164,-374.6276 1538.3837,-364.8106 1554.3646,-358.6 1615.8332,-334.7117 1771.8013,-313.2047 1898.7367,-298.7689"/>
<polygon fill="#000000" stroke="#000000" points="1899.439,-302.2119 1908.9831,-297.6117 1898.6534,-295.2561 1899.439,-302.2119"/>
<text text-anchor="middle" x="1636.4207" y="-364" font-family="Helvetica,sans-Serif" font-size="18.00" fill="#000000">orders (100 batches)</text>
</g>
<!-- /tmp/capi_in/lookup_bigtest/olist_orders_item_dataset00.csv -->
<g id="node3" class="node">
<title>/tmp/capi_in/lookup_bigtest/olist_orders_item_dataset00.csv</title>
<g id="a_node3"><a xlink:title="Source data file(s)">
<polygon fill="none" stroke="#000000" points="1783.4822,-628.2 1780.4822,-632.2 1759.4822,-632.2 1756.4822,-628.2 1233.3218,-628.2 1233.3218,-524.2 1783.4822,-524.2 1783.4822,-628.2"/>
<text text-anchor="middle" x="1508.402" y="-606.2" font-family="Helvetica,sans-Serif" font-size="20.00" fill="#000000">/tmp/capi_in/lookup_bigtest/olist_orders_item_dataset00.csv</text>
<text text-anchor="middle" x="1508.402" y="-582.2" font-family="Helvetica,sans-Serif" font-size="20.00" fill="#000000">/tmp/capi_in/lookup_bigtest/olist_orders_item_dataset01.csv</text>
<text text-anchor="middle" x="1508.402" y="-558.2" font-family="Helvetica,sans-Serif" font-size="20.00" fill="#000000">...</text>
<text text-anchor="middle" x="1508.402" y="-534.2" font-family="Helvetica,sans-Serif" font-size="20.00" fill="#000000">/tmp/capi_in/lookup_bigtest/olist_orders_item_dataset99.csv</text>
</a>
</g>
</g>
<!-- order_items -->
<g id="node4" class="node">
<title>order_items</title>
<g id="a_node4"><a xlink:title="Load order item data from CSV file">
<polygon fill="#ffffff" stroke="#000000" stroke-width="6" points="1422.057,-398.7 1422.057,-486.7 1594.747,-486.7 1594.747,-398.7 1422.057,-398.7"/>
<text text-anchor="middle" x="1508.402" y="-464.7" font-family="Helvetica,sans-Serif" font-size="20.00" fill="#000000">read_order_items</text>
<polyline fill="none" stroke="#000000" stroke-width="6" points="1422.057,-454.7 1594.747,-454.7 "/>
<text text-anchor="middle" x="1508.402" y="-432.7" font-family="Helvetica,sans-Serif" font-size="20.00" fill="#000000">creates table:</text>
<text text-anchor="middle" x="1508.402" y="-408.7" font-family="Helvetica,sans-Serif" font-size="20.00" fill="#000000">order_items</text>
</a>
</g>
</g>
<!-- /tmp/capi_in/lookup_bigtest/olist_orders_item_dataset00.csv&#45;&gt;order_items -->
<g id="edge2" class="edge">
<title>/tmp/capi_in/lookup_bigtest/olist_orders_item_dataset00.csv-&gt;order_items</title>
<path fill="none" stroke="#000000" stroke-dasharray="1,5" d="M1508.402,-523.8204C1508.402,-514.9998 1508.402,-505.8278 1508.402,-496.9606"/>
<polygon fill="#000000" stroke="#000000" points="1511.9021,-496.7308 1508.402,-486.7308 1504.9021,-496.7308 1511.9021,-496.7308"/>
</g>
<!-- order_items&#45;&gt;order_item_date_left_outer -->
<g id="edge10" class="edge">
<title>order_items-&gt;order_item_date_left_outer</title>
<path fill="none" stroke="#000000" stroke-dasharray="5,2" d="M1594.8083,-429.2042C1649.4247,-418.7087 1712.7446,-402.2216 1729.402,-380.2 1735.1934,-372.5436 1735.1298,-366.304 1729.402,-358.6 1713.4223,-337.107 1660.5389,-319.2724 1606.5141,-306.0636"/>
<polygon fill="#000000" stroke="#000000" points="1607.3183,-302.6572 1596.7784,-303.7346 1605.6896,-309.4652 1607.3183,-302.6572"/>
<text text-anchor="middle" x="1870.418" y="-364" font-family="Helvetica,sans-Serif" font-size="18.00" fill="#000000">idx_order_items_order_id (lookup)</text>
</g>
<!-- order_items&#45;&gt;order_date_value_grouped_inner -->
<g id="edge12" class="edge">
<title>order_items-&gt;order_date_value_grouped_inner</title>
<path fill="none" stroke="#000000" stroke-dasharray="5,2" d="M1421.879,-429.2899C1369.0539,-419.4068 1300.8479,-403.5717 1243.37,-380.2 1226.0965,-373.1763 1224.7241,-365.503 1207.402,-358.6 1147.692,-334.8052 1079.314,-317.5196 1018.6117,-305.3299"/>
<polygon fill="#000000" stroke="#000000" points="1019.0368,-301.8462 1008.5479,-303.3412 1017.6797,-308.7135 1019.0368,-301.8462"/>
<text text-anchor="middle" x="1380.418" y="-364" font-family="Helvetica,sans-Serif" font-size="18.00" fill="#000000">idx_order_items_order_id (lookup)</text>
</g>
<!-- order_items&#45;&gt;order_item_date_inner -->
<g id="edge8" class="edge">
<title>order_items-&gt;order_item_date_inner</title>
<path fill="none" stroke="#000000" stroke-dasharray="5,2" d="M1421.7917,-441.4042C1244.3331,-437.8485 845.3707,-424.9795 717.37,-380.2 701.1846,-374.5377 701.192,-365.2862 685.402,-358.6 603.8381,-324.0623 505.6298,-304.1983 430.3204,-293.0963"/>
<polygon fill="#000000" stroke="#000000" points="430.7161,-289.6172 420.3187,-291.6534 429.7165,-296.5455 430.7161,-289.6172"/>
<text text-anchor="middle" x="854.418" y="-364" font-family="Helvetica,sans-Serif" font-size="18.00" fill="#000000">idx_order_items_order_id (lookup)</text>
</g>
<!-- order_items&#45;&gt;order_date_value_grouped_left_outer -->
<g id="edge14" class="edge">
<title>order_items-&gt;order_date_value_grouped_left_outer</title>
<path fill="none" stroke="#000000" stroke-dasharray="5,2" d="M1594.9438,-440.5797C1720.9952,-436.0784 1947.5808,-422.2291 2016.402,-380.2 2029.4187,-372.2507 2040.5214,-360.7599 2049.7487,-348.3756"/>
<polygon fill="#000000" stroke="#000000" points="2052.6532,-350.3297 2055.5428,-340.1365 2046.9274,-346.3029 2052.6532,-350.3297"/>
<text text-anchor="middle" x="2177.418" y="-364" font-family="Helvetica,sans-Serif" font-size="18.00" fill="#000000">idx_order_items_order_id (lookup)</text>
</g>
<!-- file_order_item_date_left_outer -->
<g id="node6" class="node">
<title>file_order_item_date_left_outer</title>
<g id="a_node6"><a xlink:title="Write the results of left oter join without grouping to CSV file">
<polygon fill="#ffffff" stroke="#000000" points="1192.545,-73.5 1192.545,-161.5 1744.259,-161.5 1744.259,-73.5 1192.545,-73.5"/>
<text text-anchor="middle" x="1468.402" y="-139.5" font-family="Helvetica,sans-Serif" font-size="20.00" fill="#000000">file_order_item_date_left_outer</text>
<polyline fill="none" stroke="#000000" points="1192.545,-129.5 1744.259,-129.5 "/>
<text text-anchor="middle" x="1468.402" y="-107.5" font-family="Helvetica,sans-Serif" font-size="20.00" fill="#000000">creates file:</text>
<text text-anchor="middle" x="1468.402" y="-83.5" font-family="Helvetica,sans-Serif" font-size="20.00" fill="#000000">/tmp/capi_out/lookup_bigtest/order_item_date_left_outer.csv</text>
</a>
</g>
</g>
<!-- order_item_date_left_outer&#45;&gt;file_order_item_date_left_outer -->
<g id="edge3" class="edge">
<title>order_item_date_left_outer-&gt;file_order_item_date_left_outer</title>
<path fill="none" stroke="#000000" d="M1468.402,-220.0157C1468.402,-204.2859 1468.402,-187.4169 1468.402,-171.9964"/>
<polygon fill="#000000" stroke="#000000" points="1471.9021,-171.5839 1468.402,-161.584 1464.9021,-171.584 1471.9021,-171.5839"/>
<text text-anchor="middle" x="1640.4262" y="-185.4" font-family="Helvetica,sans-Serif" font-size="18.00" fill="#000000">order_item_date_left_outer (no parallelism)</text>
</g>
<!-- /tmp/capi_out/lookup_bigtest/order_item_date_left_outer.csv -->
<g id="node7" class="node">
<title>/tmp/capi_out/lookup_bigtest/order_item_date_left_outer.csv</title>
<g id="a_node7"><a xlink:title="Target data file(s)">
<polygon fill="none" stroke="#000000" points="1738.1161,-36 1192.6879,-36 1192.6879,0 1744.1161,0 1744.1161,-30 1738.1161,-36"/>
<polyline fill="none" stroke="#000000" points="1738.1161,-36 1738.1161,-30 "/>
<polyline fill="none" stroke="#000000" points="1744.1161,-30 1738.1161,-30 "/>
<text text-anchor="middle" x="1468.402" y="-12" font-family="Helvetica,sans-Serif" font-size="20.00" fill="#000000">/tmp/capi_out/lookup_bigtest/order_item_date_left_outer.csv</text>
</a>
</g>
</g>
<!-- file_order_item_date_left_outer&#45;&gt;/tmp/capi_out/lookup_bigtest/order_item_date_left_outer.csv -->
<g id="edge4" class="edge">
<title>file_order_item_date_left_outer-&gt;/tmp/capi_out/lookup_bigtest/order_item_date_left_outer.csv</title>
<path fill="none" stroke="#000000" stroke-dasharray="1,5" d="M1468.402,-73.2784C1468.402,-64.082 1468.402,-54.6304 1468.402,-46.2016"/>
<polygon fill="#000000" stroke="#000000" points="1471.9021,-46.1684 1468.402,-36.1685 1464.9021,-46.1685 1471.9021,-46.1684"/>
</g>
<!-- file_order_date_value_grouped_inner -->
<g id="node9" class="node">
<title>file_order_date_value_grouped_inner</title>
<g id="a_node9"><a xlink:title="Write the results of inner join with grouping to CSV file">
<polygon fill="#ffffff" stroke="#000000" points="548.748,-73.5 548.748,-161.5 1156.056,-161.5 1156.056,-73.5 548.748,-73.5"/>
<text text-anchor="middle" x="852.402" y="-139.5" font-family="Helvetica,sans-Serif" font-size="20.00" fill="#000000">file_order_date_value_grouped_inner</text>
<polyline fill="none" stroke="#000000" points="548.748,-129.5 1156.056,-129.5 "/>
<text text-anchor="middle" x="852.402" y="-107.5" font-family="Helvetica,sans-Serif" font-size="20.00" fill="#000000">creates file:</text>
<text text-anchor="middle" x="852.402" y="-83.5" font-family="Helvetica,sans-Serif" font-size="20.00" fill="#000000">/tmp/capi_out/lookup_bigtest/order_date_value_grouped_inner.csv</text>
</a>
</g>
</g>
<!-- order_date_value_grouped_inner&#45;&gt;file_order_date_value_grouped_inner -->
<g id="edge5" class="edge">
<title>order_date_value_grouped_inner-&gt;file_order_date_value_grouped_inner</title>
<path fill="none" stroke="#000000" d="M852.402,-220.0157C852.402,-204.2859 852.402,-187.4169 852.402,-171.9964"/>
<polygon fill="#000000" stroke="#000000" points="855.9021,-171.5839 852.402,-161.584 848.9021,-171.584 855.9021,-171.5839"/>
<text text-anchor="middle" x="1049.4435" y="-185.4" font-family="Helvetica,sans-Serif" font-size="18.00" fill="#000000">order_date_value_grouped_inner (no parallelism)</text>
</g>
<!-- /tmp/capi_out/lookup_bigtest/order_date_value_grouped_inner.csv -->
<g id="node10" class="node">
<title>/tmp/capi_out/lookup_bigtest/order_date_value_grouped_inner.csv</title>
<g id="a_node10"><a xlink:title="Target data file(s)">
<polygon fill="none" stroke="#000000" points="1150.2101,-36 548.5939,-36 548.5939,0 1156.2101,0 1156.2101,-30 1150.2101,-36"/>
<polyline fill="none" stroke="#000000" points="1150.2101,-36 1150.2101,-30 "/>
<polyline fill="none" stroke="#000000" points="1156.2101,-30 1150.2101,-30 "/>
<text text-anchor="middle" x="852.402" y="-12" font-family="Helvetica,sans-Serif" font-size="20.00" fill="#000000">/tmp/capi_out/lookup_bigtest/order_date_value_grouped_inner.csv</text>
</a>
</g>
</g>
<!-- file_order_date_value_grouped_inner&#45;&gt;/tmp/capi_out/lookup_bigtest/order_date_value_grouped_inner.csv -->
<g id="edge6" class="edge">
<title>file_order_date_value_grouped_inner-&gt;/tmp/capi_out/lookup_bigtest/order_date_value_grouped_inner.csv</title>
<path fill="none" stroke="#000000" stroke-dasharray="1,5" d="M852.402,-73.2784C852.402,-64.082 852.402,-54.6304 852.402,-46.2016"/>
<polygon fill="#000000" stroke="#000000" points="855.9021,-46.1684 852.402,-36.1685 848.9021,-46.1685 855.9021,-46.1684"/>
</g>
<!-- file_order_item_date_inner -->
<g id="node13" class="node">
<title>file_order_item_date_inner</title>
<g id="a_node13"><a xlink:title="Write the results of inner join without grouping to CSV file">
<polygon fill="#ffffff" stroke="#000000" points="0,-73.5 0,-161.5 512.804,-161.5 512.804,-73.5 0,-73.5"/>
<text text-anchor="middle" x="256.402" y="-139.5" font-family="Helvetica,sans-Serif" font-size="20.00" fill="#000000">file_order_item_date_inner</text>
<polyline fill="none" stroke="#000000" points="0,-129.5 512.804,-129.5 "/>
<text text-anchor="middle" x="256.402" y="-107.5" font-family="Helvetica,sans-Serif" font-size="20.00" fill="#000000">creates file:</text>
<text text-anchor="middle" x="256.402" y="-83.5" font-family="Helvetica,sans-Serif" font-size="20.00" fill="#000000">/tmp/capi_out/lookup_bigtest/order_item_date_inner.csv</text>
</a>
</g>
</g>
<!-- order_item_date_inner&#45;&gt;file_order_item_date_inner -->
<g id="edge15" class="edge">
<title>order_item_date_inner-&gt;file_order_item_date_inner</title>
<path fill="none" stroke="#000000" d="M291.0783,-220.0157C285.6553,-203.9834 279.832,-186.7676 274.5352,-171.1084"/>
<polygon fill="#000000" stroke="#000000" points="277.8333,-169.9352 271.3136,-161.584 271.2023,-172.1782 277.8333,-169.9352"/>
<text text-anchor="middle" x="438.9167" y="-185.4" font-family="Helvetica,sans-Serif" font-size="18.00" fill="#000000">order_item_date_inner (no parallelism)</text>
</g>
<!-- file_order_date_value_grouped_left_outer -->
<g id="node15" class="node">
<title>file_order_date_value_grouped_left_outer</title>
<g id="a_node15"><a xlink:title="Write the results of left outer join with grouping to CSV file">
<polygon fill="#ffffff" stroke="#000000" points="1780.293,-73.5 1780.293,-161.5 2426.511,-161.5 2426.511,-73.5 1780.293,-73.5"/>
<text text-anchor="middle" x="2103.402" y="-139.5" font-family="Helvetica,sans-Serif" font-size="20.00" fill="#000000">file_order_date_value_grouped_left_outer</text>
<polyline fill="none" stroke="#000000" points="1780.293,-129.5 2426.511,-129.5 "/>
<text text-anchor="middle" x="2103.402" y="-107.5" font-family="Helvetica,sans-Serif" font-size="20.00" fill="#000000">creates file:</text>
<text text-anchor="middle" x="2103.402" y="-83.5" font-family="Helvetica,sans-Serif" font-size="20.00" fill="#000000">/tmp/capi_out/lookup_bigtest/order_date_value_grouped_left_outer.csv</text>
</a>
</g>
</g>
<!-- order_date_value_grouped_left_outer&#45;&gt;file_order_date_value_grouped_left_outer -->
<g id="edge17" class="edge">
<title>order_date_value_grouped_left_outer-&gt;file_order_date_value_grouped_left_outer</title>
<path fill="none" stroke="#000000" d="M2091.4229,-220.0157C2093.2786,-204.1347 2095.2701,-187.0924 2097.086,-171.552"/>
<polygon fill="#000000" stroke="#000000" points="2100.5664,-171.9226 2098.2507,-161.584 2093.6137,-171.1101 2100.5664,-171.9226"/>
<text text-anchor="middle" x="2309.953" y="-185.4" font-family="Helvetica,sans-Serif" font-size="18.00" fill="#000000">order_date_value_grouped_left_outer (no parallelism)</text>
</g>
<!-- /tmp/capi_out/lookup_bigtest/order_item_date_inner.csv -->
<g id="node14" class="node">
<title>/tmp/capi_out/lookup_bigtest/order_item_date_inner.csv</title>
<g id="a_node14"><a xlink:title="Target data file(s)">
<polygon fill="none" stroke="#000000" points="506.706,-36 .098,-36 .098,0 512.706,0 512.706,-30 506.706,-36"/>
<polyline fill="none" stroke="#000000" points="506.706,-36 506.706,-30 "/>
<polyline fill="none" stroke="#000000" points="512.706,-30 506.706,-30 "/>
<text text-anchor="middle" x="256.402" y="-12" font-family="Helvetica,sans-Serif" font-size="20.00" fill="#000000">/tmp/capi_out/lookup_bigtest/order_item_date_inner.csv</text>
</a>
</g>
</g>
<!-- file_order_item_date_inner&#45;&gt;/tmp/capi_out/lookup_bigtest/order_item_date_inner.csv -->
<g id="edge16" class="edge">
<title>file_order_item_date_inner-&gt;/tmp/capi_out/lookup_bigtest/order_item_date_inner.csv</title>
<path fill="none" stroke="#000000" stroke-dasharray="1,5" d="M256.402,-73.2784C256.402,-64.082 256.402,-54.6304 256.402,-46.2016"/>
<polygon fill="#000000" stroke="#000000" points="259.9021,-46.1684 256.402,-36.1685 252.9021,-46.1685 259.9021,-46.1684"/>
</g>
<!-- /tmp/capi_out/lookup_bigtest/order_date_value_grouped_left_outer.csv -->
<g id="node16" class="node">
<title>/tmp/capi_out/lookup_bigtest/order_date_value_grouped_left_outer.csv</title>
<g id="a_node16"><a xlink:title="Target data file(s)">
<polygon fill="none" stroke="#000000" points="2420.62,-36 1780.184,-36 1780.184,0 2426.62,0 2426.62,-30 2420.62,-36"/>
<polyline fill="none" stroke="#000000" points="2420.62,-36 2420.62,-30 "/>
<polyline fill="none" stroke="#000000" points="2426.62,-30 2420.62,-30 "/>
<text text-anchor="middle" x="2103.402" y="-12" font-family="Helvetica,sans-Serif" font-size="20.00" fill="#000000">/tmp/capi_out/lookup_bigtest/order_date_value_grouped_left_outer.csv</text>
</a>
</g>
</g>
<!-- file_order_date_value_grouped_left_outer&#45;&gt;/tmp/capi_out/lookup_bigtest/order_date_value_grouped_left_outer.csv -->
<g id="edge18" class="edge">
<title>file_order_date_value_grouped_left_outer-&gt;/tmp/capi_out/lookup_bigtest/order_date_value_grouped_left_outer.csv</title>
<path fill="none" stroke="#000000" stroke-dasharray="1,5" d="M2103.402,-73.2784C2103.402,-64.082 2103.402,-54.6304 2103.402,-46.2016"/>
<polygon fill="#000000" stroke="#000000" points="2106.9021,-46.1684 2103.402,-36.1685 2099.9021,-46.1685 2106.9021,-46.1684"/>
</g>
</g>
</svg>