<?xml version="1.0" encoding="UTF-8" standalone="no"?><!DOCTYPE svg PUBLIC "-//W3C//DTD SVG 1.1//EN" "http://www.w3.org/Graphics/SVG/1.1/DTD/svg11.dtd"><!-- Generated by graphviz version 2.40.1 (20161225.0304)
 --><!-- Title: indexes Pages: 1 --><svg xmlns="http://www.w3.org/2000/svg" xmlns:xlink="http://www.w3.org/1999/xlink" width="2156pt" height="8063pt" viewBox="0.00 6800.00 2155.90 8063.40">
<g id="graph0" class="graph" transform="scale(1 1) rotate(0) translate(36 8027.4)">
<title>indexes</title>
<polygon fill="#ffffff" stroke="transparent" points="-36,36 -36,-8027.4 2119.8954,-8027.4 2119.8954,36 -36,36"/>
<!-- loan_ids -->
<g id="node1" class="node">
<title>loan_ids</title>
<g id="a_node1"><a xlink:title="Select distinct loan ids">
<polygon fill="#ffffff" stroke="#000000" points="864.831,-823.3 864.831,-911.3 1000.867,-911.3 1000.867,-823.3 864.831,-823.3"/>
<text text-anchor="middle" x="932.849" y="-889.3" font-family="Helvetica,sans-Serif" font-size="20.00" fill="#000000">02_loan_ids</text>
<polyline fill="none" stroke="#000000" points="864.831,-879.3 1000.867,-879.3 "/>
<text text-anchor="middle" x="932.849" y="-857.3" font-family="Helvetica,sans-Serif" font-size="20.00" fill="#000000">creates table:</text>
<text text-anchor="middle" x="932.849" y="-833.3" font-family="Helvetica,sans-Serif" font-size="20.00" fill="#000000">loan_ids</text>
</a>
</g>
</g>
<!-- deal_sellers -->
<g id="node2" class="node">
<title>deal_sellers</title>
<g id="a_node2"><a xlink:title="Select distinct sellers">
<polygon fill="#ffffff" stroke="#000000" points="1559.832,-537.7 1559.832,-625.7 1715.866,-625.7 1715.866,-537.7 1559.832,-537.7"/>
<text text-anchor="middle" x="1637.849" y="-603.7" font-family="Helvetica,sans-Serif" font-size="20.00" fill="#000000">02_deal_sellers</text>
<polyline fill="none" stroke="#000000" points="1559.832,-593.7 1715.866,-593.7 "/>
<text text-anchor="middle" x="1637.849" y="-571.7" font-family="Helvetica,sans-Serif" font-size="20.00" fill="#000000">creates table:</text>
<text text-anchor="middle" x="1637.849" y="-547.7" font-family="Helvetica,sans-Serif" font-size="20.00" fill="#000000">deal_sellers</text>
</a>
</g>
</g>
<!-- loan_ids&#45;&gt;deal_sellers -->
<g id="edge1" class="edge">
<title>loan_ids-&gt;deal_sellers</title>
<path fill="none" stroke="#000000" d="M1001.071,-845.3477C1035.6768,-833.8723 1078.2374,-819.237 1115.849,-804.8 1270.5856,-745.405 1447.2931,-667.7662 1550.3269,-621.4858"/>
<polygon fill="#000000" stroke="#000000" points="1551.7671,-624.6758 1559.452,-617.3825 1548.8962,-618.2916 1551.7671,-624.6758"/>
<text text-anchor="middle" x="1258.8759" y="-788.6" font-family="Helvetica,sans-Serif" font-size="18.00" fill="#000000">loan_ids (772 batches)</text>
</g>
<!-- deal_names -->
<g id="node3" class="node">
<title>deal_names</title>
<g id="a_node3"><a xlink:title="Select distinct deal names">
<polygon fill="#ffffff" stroke="#000000" points="210.711,-660.7 210.711,-748.7 368.987,-748.7 368.987,-660.7 210.711,-660.7"/>
<text text-anchor="middle" x="289.849" y="-726.7" font-family="Helvetica,sans-Serif" font-size="20.00" fill="#000000">02_deal_names</text>
<polyline fill="none" stroke="#000000" points="210.711,-716.7 368.987,-716.7 "/>
<text text-anchor="middle" x="289.849" y="-694.7" font-family="Helvetica,sans-Serif" font-size="20.00" fill="#000000">creates table:</text>
<text text-anchor="middle" x="289.849" y="-670.7" font-family="Helvetica,sans-Serif" font-size="20.00" fill="#000000">deal_names</text>
</a>
</g>
</g>
<!-- loan_ids&#45;&gt;deal_names -->
<g id="edge17" class="edge">
<title>loan_ids-&gt;deal_names</title>
<path fill="none" stroke="#000000" d="M864.6094,-865.2865C709.6231,-860.0504 341.4026,-843.6207 301.7952,-804.8 289.7364,-792.9808 285.07,-775.8533 283.9367,-759.0972"/>
<polygon fill="#000000" stroke="#000000" points="287.4263,-758.6631 283.6532,-748.7629 280.4289,-758.8551 287.4263,-758.6631"/>
<text text-anchor="middle" x="392.8759" y="-788.6" font-family="Helvetica,sans-Serif" font-size="18.00" fill="#000000">loan_ids (772 batches)</text>
</g>
<!-- deal_total_upbs -->
<g id="node4" class="node">
<title>deal_total_upbs</title>
<g id="a_node4"><a xlink:title="For each deal, calculate total UPBs">
<polygon fill="#ffffff" stroke="#000000" points="179.586,-398.7 179.586,-518.7 370.112,-518.7 370.112,-398.7 179.586,-398.7"/>
<text text-anchor="middle" x="274.849" y="-496.7" font-family="Helvetica,sans-Serif" font-size="20.00" fill="#000000">03_deal_total_upbs</text>
<polyline fill="none" stroke="#000000" points="179.586,-486.7 370.112,-486.7 "/>
<text text-anchor="middle" x="274.849" y="-464.7" font-family="Helvetica,sans-Serif" font-size="20.00" fill="#000000">creates table:</text>
<text text-anchor="middle" x="274.849" y="-440.7" font-family="Helvetica,sans-Serif" font-size="20.00" fill="#000000">deal_total_upbs</text>
<polyline fill="none" stroke="#000000" points="179.586,-430.7 370.112,-430.7 "/>
<text text-anchor="middle" x="274.849" y="-408.7" font-family="Helvetica,sans-Serif" font-size="20.00" fill="#000000">group:true, join:left</text>
</a>
</g>
</g>
<!-- loan_ids&#45;&gt;deal_total_upbs -->
<g id="edge3" class="edge">
<title>loan_ids-&gt;deal_total_upbs</title>
<path fill="none" stroke="#000000" stroke-dasharray="5,2" d="M864.6216,-858.9731C761.9417,-845.0173 574.8743,-813.5872 529.7814,-765.2 459.5915,-689.8822 555.0493,-616.0475 488.849,-537.2 461.5797,-504.7211 419.6408,-485.6783 380.0923,-474.514"/>
<polygon fill="#000000" stroke="#000000" points="380.9331,-471.1159 370.368,-471.9101 379.1223,-477.8777 380.9331,-471.1159"/>
<text text-anchor="middle" x="664.3828" y="-699.3" font-family="Helvetica,sans-Serif" font-size="18.00" fill="#000000">idx_loan_ids_deal_name (lookup)</text>
</g>
<!-- loan_payment_summaries -->
<g id="node5" class="node">
<title>loan_payment_summaries</title>
<g id="a_node5"><a xlink:title="For each loan, merge all payments into single json string">
<polygon fill="#ffffff" stroke="#000000" points="816.931,-644.7 816.931,-764.7 1100.767,-764.7 1100.767,-644.7 816.931,-644.7"/>
<text text-anchor="middle" x="958.849" y="-742.7" font-family="Helvetica,sans-Serif" font-size="20.00" fill="#000000">04_loan_payment_summaries</text>
<polyline fill="none" stroke="#000000" points="816.931,-732.7 1100.767,-732.7 "/>
<text text-anchor="middle" x="958.849" y="-710.7" font-family="Helvetica,sans-Serif" font-size="20.00" fill="#000000">creates table:</text>
<text text-anchor="middle" x="958.849" y="-686.7" font-family="Helvetica,sans-Serif" font-size="20.00" fill="#000000">loan_payment_summaries</text>
<polyline fill="none" stroke="#000000" points="816.931,-676.7 1100.767,-676.7 "/>
<text text-anchor="middle" x="958.849" y="-654.7" font-family="Helvetica,sans-Serif" font-size="20.00" fill="#000000">group:true, join:left</text>
</a>
</g>
</g>
<!-- loan_ids&#45;&gt;loan_payment_summaries -->
<g id="edge4" class="edge">
<title>loan_ids-&gt;loan_payment_summaries</title>
<path fill="none" stroke="#000000" d="M926.9049,-822.9587C926.1993,-810.0555 926.43,-795.9929 928.7952,-783.2 929.3175,-780.3749 929.9372,-777.52 930.6363,-774.6566"/>
<polygon fill="#000000" stroke="#000000" points="934.0373,-775.4883 933.2925,-764.9197 927.284,-773.646 934.0373,-775.4883"/>
<text text-anchor="middle" x="1019.8759" y="-788.6" font-family="Helvetica,sans-Serif" font-size="18.00" fill="#000000">loan_ids (772 batches)</text>
</g>
<!-- deal_seller_summaries -->
<g id="node8" class="node">
<title>deal_seller_summaries</title>
<g id="a_node8"><a xlink:title="For each deal/seller, calculate aggregates from calculated loan summaries">
<polygon fill="#ffffff" stroke="#000000" points="1634.39,-220.1 1634.39,-340.1 1889.308,-340.1 1889.308,-220.1 1634.39,-220.1"/>
<text text-anchor="middle" x="1761.849" y="-318.1" font-family="Helvetica,sans-Serif" font-size="20.00" fill="#000000">05_deal_seller_summaries</text>
<polyline fill="none" stroke="#000000" points="1634.39,-308.1 1889.308,-308.1 "/>
<text text-anchor="middle" x="1761.849" y="-286.1" font-family="Helvetica,sans-Serif" font-size="20.00" fill="#000000">creates table:</text>
<text text-anchor="middle" x="1761.849" y="-262.1" font-family="Helvetica,sans-Serif" font-size="20.00" fill="#000000">deal_seller_summaries</text>
<polyline fill="none" stroke="#000000" points="1634.39,-252.1 1889.308,-252.1 "/>
<text text-anchor="middle" x="1761.849" y="-230.1" font-family="Helvetica,sans-Serif" font-size="20.00" fill="#000000">group:true, join:left</text>
</a>
</g>
</g>
<!-- deal_sellers&#45;&gt;deal_seller_summaries -->
<g id="edge7" class="edge">
<title>deal_sellers-&gt;deal_seller_summaries</title>
<path fill="none" stroke="#000000" d="M1715.976,-542.6652C1774.4726,-508.6542 1850.1371,-453.315 1884.849,-380.2 1890.1732,-368.9855 1889.806,-358.6162 1885.5873,-349.1421"/>
<polygon fill="#000000" stroke="#000000" points="1888.5002,-347.1903 1880.4224,-340.3347 1882.4619,-350.7314 1888.5002,-347.1903"/>
<text text-anchor="middle" x="1978.3722" y="-453.3" font-family="Helvetica,sans-Serif" font-size="18.00" fill="#000000">deal_sellers (772 batches)</text>
</g>
<!-- deal_names&#45;&gt;deal_total_upbs -->
<g id="edge2" class="edge">
<title>deal_names-&gt;deal_total_upbs</title>
<path fill="none" stroke="#000000" d="M277.1953,-660.6161C274.5391,-649.48 272.1348,-637.4794 270.7848,-626.2 266.9968,-594.5508 267.1963,-559.3062 268.6637,-529.3431"/>
<polygon fill="#000000" stroke="#000000" points="272.1791,-529.1561 269.2312,-518.9796 265.1896,-528.7733 272.1791,-529.1561"/>
<text text-anchor="middle" x="377.3811" y="-576.3" font-family="Helvetica,sans-Serif" font-size="18.00" fill="#000000">deal_names (772 batches)</text>
</g>
<!-- deal_summaries -->
<g id="node12" class="node">
<title>deal_summaries</title>
<g id="a_node12"><a xlink:title="For each deal, calculate aggregates from calculated loan summaries">
<polygon fill="#ffffff" stroke="#000000" points="172.834,-220.1 172.834,-340.1 368.864,-340.1 368.864,-220.1 172.834,-220.1"/>
<text text-anchor="middle" x="270.849" y="-318.1" font-family="Helvetica,sans-Serif" font-size="20.00" fill="#000000">05_deal_summaries</text>
<polyline fill="none" stroke="#000000" points="172.834,-308.1 368.864,-308.1 "/>
<text text-anchor="middle" x="270.849" y="-286.1" font-family="Helvetica,sans-Serif" font-size="20.00" fill="#000000">creates table:</text>
<text text-anchor="middle" x="270.849" y="-262.1" font-family="Helvetica,sans-Serif" font-size="20.00" fill="#000000">deal_summaries</text>
<polyline fill="none" stroke="#000000" points="172.834,-252.1 368.864,-252.1 "/>
<text text-anchor="middle" x="270.849" y="-230.1" font-family="Helvetica,sans-Serif" font-size="20.00" fill="#000000">group:true, join:left</text>
</a>
</g>
</g>
<!-- deal_total_upbs&#45;&gt;deal_summaries -->
<g id="edge13" class="edge">
<title>deal_total_upbs-&gt;deal_summaries</title>
<path fill="none" stroke="#000000" d="M214.8795,-398.4434C211.261,-392.5926 208.1316,-386.4847 205.7598,-380.2 201.8772,-369.912 202.3985,-359.5895 205.6653,-349.6886"/>
<polygon fill="#000000" stroke="#000000" points="208.9459,-350.9157 209.5844,-340.3401 202.4902,-348.2093 208.9459,-350.9157"/>
<text text-anchor="middle" x="326.8936" y="-364" font-family="Helvetica,sans-Serif" font-size="18.00" fill="#000000">deal_total_upbs (772 batches)</text>
</g>
<!-- loan_summaries_calculated -->
<g id="node7" class="node">
<title>loan_summaries_calculated</title>
<g id="a_node7"><a xlink:title="Apply Python calculations to loan summaries">
<polygon fill="#ffffff" stroke="#000000" points="810.263,-414.7 810.263,-502.7 1107.435,-502.7 1107.435,-414.7 810.263,-414.7"/>
<text text-anchor="middle" x="958.849" y="-480.7" font-family="Helvetica,sans-Serif" font-size="20.00" fill="#000000">04_loan_summaries_calculated</text>
<polyline fill="none" stroke="#000000" points="810.263,-470.7 1107.435,-470.7 "/>
<text text-anchor="middle" x="958.849" y="-448.7" font-family="Helvetica,sans-Serif" font-size="20.00" fill="#000000">creates table:</text>
<text text-anchor="middle" x="958.849" y="-424.7" font-family="Helvetica,sans-Serif" font-size="20.00" fill="#000000">loan_summaries_calculated</text>
</a>
</g>
</g>
<!-- loan_payment_summaries&#45;&gt;loan_summaries_calculated -->
<g id="edge6" class="edge">
<title>loan_payment_summaries-&gt;loan_summaries_calculated</title>
<path fill="none" stroke="#000000" d="M958.849,-644.5216C958.849,-604.3049 958.849,-551.84 958.849,-512.9179"/>
<polygon fill="#000000" stroke="#000000" points="962.3491,-512.8263 958.849,-502.8263 955.3491,-512.8263 962.3491,-512.8263"/>
<text text-anchor="middle" x="1121.8831" y="-576.3" font-family="Helvetica,sans-Serif" font-size="18.00" fill="#000000">loan_payment_summaries (772 batches)</text>
</g>
<!-- payments -->
<g id="node6" class="node">
<title>payments</title>
<g id="a_node6"><a xlink:title="Read source files to a table">
<polygon fill="#ffffff" stroke="#000000" stroke-width="6" points="1053.263,-969.9 1053.263,-1057.9 1240.435,-1057.9 1240.435,-969.9 1053.263,-969.9"/>
<text text-anchor="middle" x="1146.849" y="-1035.9" font-family="Helvetica,sans-Serif" font-size="20.00" fill="#000000">01_read_payments</text>
<polyline fill="none" stroke="#000000" stroke-width="6" points="1053.263,-1025.9 1240.435,-1025.9 "/>
<text text-anchor="middle" x="1146.849" y="-1003.9" font-family="Helvetica,sans-Serif" font-size="20.00" fill="#000000">creates table:</text>
<text text-anchor="middle" x="1146.849" y="-979.9" font-family="Helvetica,sans-Serif" font-size="20.00" fill="#000000">payments</text>
</a>
</g>
</g>
<!-- payments&#45;&gt;loan_ids -->
<g id="edge12" class="edge">
<title>payments-&gt;loan_ids</title>
<path fill="none" stroke="#000000" d="M1082.3517,-969.7164C1058.1372,-953.1283 1030.4549,-934.1646 1005.5461,-917.1009"/>
<polygon fill="#000000" stroke="#000000" points="1007.4421,-914.1573 997.2142,-911.3931 1003.486,-919.9322 1007.4421,-914.1573"/>
<text text-anchor="middle" x="1149.3758" y="-935.2" font-family="Helvetica,sans-Serif" font-size="18.00" fill="#000000">payments (772 batches)</text>
</g>
<!-- payments&#45;&gt;loan_payment_summaries -->
<g id="edge5" class="edge">
<title>payments-&gt;loan_payment_summaries</title>
<path fill="none" stroke="#000000" stroke-dasharray="5,2" d="M1227.4052,-969.6881C1301.394,-923.4182 1392.0788,-848.5498 1338.849,-783.2 1309.8073,-747.5457 1203.6653,-727.5942 1110.9183,-716.7372"/>
<polygon fill="#000000" stroke="#000000" points="1111.1702,-713.2433 1100.8377,-715.5863 1110.3761,-720.1981 1111.1702,-713.2433"/>
<text text-anchor="middle" x="1492.8837" y="-861.9" font-family="Helvetica,sans-Serif" font-size="18.00" fill="#000000">idx_payments_by_loan_id (lookup)</text>
</g>
<!-- loan_summaries_calculated&#45;&gt;deal_seller_summaries -->
<g id="edge8" class="edge">
<title>loan_summaries_calculated-&gt;deal_seller_summaries</title>
<path fill="none" stroke="#000000" stroke-dasharray="5,2" d="M1107.6005,-436.5209C1171.5736,-424.2002 1246.321,-406.0136 1310.849,-380.2 1328.1377,-373.2839 1329.3496,-365.2341 1346.7484,-358.6 1435.9801,-324.5763 1541.8262,-304.8553 1624.302,-293.6895"/>
<polygon fill="#000000" stroke="#000000" points="1624.7892,-297.1557 1634.2415,-292.3699 1623.8678,-290.2166 1624.7892,-297.1557"/>
<text text-anchor="middle" x="1612.3993" y="-364" font-family="Helvetica,sans-Serif" font-size="18.00" fill="#000000">idx_loan_summaries_calculated_deal_name_seller_name (lookup)</text>
</g>
<!-- loan_summaries_calculated&#45;&gt;deal_summaries -->
<g id="edge14" class="edge">
<title>loan_summaries_calculated-&gt;deal_summaries</title>
<path fill="none" stroke="#000000" stroke-dasharray="5,2" d="M810.1067,-439.7373C724.5048,-426.9219 615.4677,-407.3439 520.7646,-380.2 473.0458,-366.5228 421.9063,-346.9651 378.3977,-328.7604"/>
<polygon fill="#000000" stroke="#000000" points="379.5223,-325.4362 368.948,-324.7777 376.8037,-331.8868 379.5223,-325.4362"/>
<text text-anchor="middle" x="733.3912" y="-364" font-family="Helvetica,sans-Serif" font-size="18.00" fill="#000000">idx_loan_summaries_calculated_deal_name (lookup)</text>
</g>
<!-- 04_write_file_loan_summaries_calculated -->
<g id="node15" class="node">
<title>04_write_file_loan_summaries_calculated</title>
<g id="a_node15"><a xlink:title="Write from table to file loan_summaries.parquet">
<polygon fill="#ffffff" stroke="#000000" points="637.429,-236.1 637.429,-324.1 1280.269,-324.1 1280.269,-236.1 637.429,-236.1"/>
<text text-anchor="middle" x="958.849" y="-302.1" font-family="Helvetica,sans-Serif" font-size="20.00" fill="#000000">04_write_file_loan_summaries_calculated</text>
<polyline fill="none" stroke="#000000" points="637.429,-292.1 1280.269,-292.1 "/>
<text text-anchor="middle" x="958.849" y="-270.1" font-family="Helvetica,sans-Serif" font-size="20.00" fill="#000000">creates file:</text>
<text text-anchor="middle" x="958.849" y="-246.1" font-family="Helvetica,sans-Serif" font-size="20.00" fill="#000000">/tmp/capi_out/fannie_mae_bigtest/loan_summaries_calculated.parquet</text>
</a>
</g>
</g>
<!-- loan_summaries_calculated&#45;&gt;04_write_file_loan_summaries_calculated -->
<g id="edge18" class="edge">
<title>loan_summaries_calculated-&gt;04_write_file_loan_summaries_calculated</title>
<path fill="none" stroke="#000000" d="M956.1758,-414.2943C955.6153,-403.1662 955.1086,-391.2499 954.8256,-380.2 954.4457,-365.3669 954.7659,-349.3033 955.3616,-334.4767"/>
<polygon fill="#000000" stroke="#000000" points="958.8601,-334.5872 955.8129,-324.4401 951.8672,-334.2727 958.8601,-334.5872"/>
<text text-anchor="middle" x="1130.3607" y="-364" font-family="Helvetica,sans-Serif" font-size="18.00" fill="#000000">loan_summaries_calculated (no parallelism)</text>
</g>
<!-- 05_write_file_deal_seller_summaries -->
<g id="node9" class="node">
<title>05_write_file_deal_seller_summaries</title>
<g id="a_node9"><a xlink:title="Write from table to file deal_seller_summaries.parquet">
<polygon fill="#ffffff" stroke="#000000" points="1461.556,-73.5 1461.556,-161.5 2062.142,-161.5 2062.142,-73.5 1461.556,-73.5"/>
<text text-anchor="middle" x="1761.849" y="-139.5" font-family="Helvetica,sans-Serif" font-size="20.00" fill="#000000">05_write_file_deal_seller_summaries</text>
<polyline fill="none" stroke="#000000" points="1461.556,-129.5 2062.142,-129.5 "/>
<text text-anchor="middle" x="1761.849" y="-107.5" font-family="Helvetica,sans-Serif" font-size="20.00" fill="#000000">creates file:</text>
<text text-anchor="middle" x="1761.849" y="-83.5" font-family="Helvetica,sans-Serif" font-size="20.00" fill="#000000">/tmp/capi_out/fannie_mae_bigtest/deal_seller_summaries.parquet</text>
</a>
</g>
</g>
<!-- deal_seller_summaries&#45;&gt;05_write_file_deal_seller_summaries -->
<g id="edge9" class="edge">
<title>deal_seller_summaries-&gt;05_write_file_deal_seller_summaries</title>
<path fill="none" stroke="#000000" d="M1761.849,-220.0157C1761.849,-204.2859 1761.849,-187.4169 1761.849,-171.9964"/>
<polygon fill="#000000" stroke="#000000" points="1765.3491,-171.5839 1761.849,-161.584 1758.3491,-171.584 1765.3491,-171.5839"/>
<text text-anchor="middle" x="1918.3464" y="-185.4" font-family="Helvetica,sans-Serif" font-size="18.00" fill="#000000">deal_seller_summaries (no parallelism)</text>
</g>
<!-- /tmp/capi_out/fannie_mae_bigtest/deal_seller_summaries.parquet -->
<g id="node10" class="node">
<title>/tmp/capi_out/fannie_mae_bigtest/deal_seller_summaries.parquet</title>
<g id="a_node10"><a xlink:title="Target data file(s)">
<polygon fill="none" stroke="#000000" points="2055.9351,-36 1461.7629,-36 1461.7629,0 2061.9351,0 2061.9351,-30 2055.9351,-36"/>
<polyline fill="none" stroke="#000000" points="2055.9351,-36 2055.9351,-30 "/>
<polyline fill="none" stroke="#000000" points="2061.9351,-30 2055.9351,-30 "/>
<text text-anchor="middle" x="1761.849" y="-12" font-family="Helvetica,sans-Serif" font-size="20.00" fill="#000000">/tmp/capi_out/fannie_mae_bigtest/deal_seller_summaries.parquet</text>
</a>
</g>
</g>
<!-- 05_write_file_deal_seller_summaries&#45;&gt;/tmp/capi_out/fannie_mae_bigtest/deal_seller_summaries.parquet -->
<g id="edge10" class="edge">
<title>05_write_file_deal_seller_summaries-&gt;/tmp/capi_out/fannie_mae_bigtest/deal_seller_summaries.parquet</title>
<path fill="none" stroke="#000000" stroke-dasharray="1,5" d="M1761.849,-73.2784C1761.849,-64.082 1761.849,-54.6304 1761.849,-46.2016"/>
<polygon fill="#000000" stroke="#000000" points="1765.3491,-46.1684 1761.849,-36.1685 1758.3491,-46.1685 1765.3491,-46.1684"/>
</g>
<!-- https://capi&#45;in.s3.us&#45;east&#45;1.amazonaws.com/fannie_mae_bigtest/CAS_2022_R01_G1_000.parquet -->
<g id="node11" class="node" transform="translate(0,6800)">
<title>https://capi-in.s3.us-east-1.amazonaws.com/fannie_mae_bigtest/CAS_2022_R01_G1_000.parquet</title>
<g id="a_node11"><a xlink:title="Source data file(s)">
<polygon fill="none" stroke="#000000" points="1592.669,-7991.4 1589.669,-7995.4 1568.669,-7995.4 1565.669,-7991.4 701.029,-7991.4 701.029,-7895.4 1592.669,-7895.4 1592.669,-7991.4"/>
<text text-anchor="middle" x="1146.849" y="-7969.4" font-family="Helvetica,sans-Serif" font-size="20.00" fill="#000000">https://capi-in.s3.us-east-1.amazonaws.com/fannie_mae_bigtest/CAS_2022_R01_G1_000.parquet</text>
<text text-anchor="middle" x="1146.849" y="-7945.4" font-family="Helvetica,sans-Serif" font-size="20.00" fill="#000000">...</text>
<text text-anchor="middle" x="1146.849" y="-7921.4" font-family="Helvetica,sans-Serif" font-size="20.00" fill="#000000">https://capi-in.s3.us-east-1.amazonaws.com/fannie_mae_bigtest/CAS_2023_R08_G1_002.parquet</text>
</a>
</g>
</g>
<!-- https://capi&#45;in.s3.us&#45;east&#45;1.amazonaws.com/fannie_mae_bigtest/CAS_2022_R01_G1_000.parquet&#45;&gt;payments -->
<g id="edge11" class="edge">
<title>https://capi-in.s3.us-east-1.amazonaws.com/fannie_mae_bigtest/CAS_2022_R01_G1_000.parquet-&gt;payments</title>
<path fill="none" stroke="#000000" stroke-dasharray="1,5" d="M1146.849,-1095.0977C1146.849,-1085.278 1146.849,-1076.287 1146.849,-1068.1591"/>
<polygon fill="#000000" stroke="#000000" points="1150.3491,-1067.9741 1146.849,-1057.9741 1143.3491,-1067.9742 1150.3491,-1067.9741"/>
</g>
<!-- 05_write_file_deal_summaries -->
<g id="node13" class="node">
<title>05_write_file_deal_summaries</title>
<g id="a_node13"><a xlink:title="Write from table to file deal_summaries.parquet">
<polygon fill="#ffffff" stroke="#000000" points="0,-73.5 0,-161.5 541.698,-161.5 541.698,-73.5 0,-73.5"/>
<text text-anchor="middle" x="270.849" y="-139.5" font-family="Helvetica,sans-Serif" font-size="20.00" fill="#000000">05_write_file_deal_summaries</text>
<polyline fill="none" stroke="#000000" points="0,-129.5 541.698,-129.5 "/>
<text text-anchor="middle" x="270.849" y="-107.5" font-family="Helvetica,sans-Serif" font-size="20.00" fill="#000000">creates file:</text>
<text text-anchor="middle" x="270.849" y="-83.5" font-family="Helvetica,sans-Serif" font-size="20.00" fill="#000000">/tmp/capi_out/fannie_mae_bigtest/deal_summaries.parquet</text>
</a>
</g>
</g>
<!-- deal_summaries&#45;&gt;05_write_file_deal_summaries -->
<g id="edge15" class="edge">
<title>deal_summaries-&gt;05_write_file_deal_summaries</title>
<path fill="none" stroke="#000000" d="M270.849,-220.0157C270.849,-204.2859 270.849,-187.4169 270.849,-171.9964"/>
<polygon fill="#000000" stroke="#000000" points="274.3491,-171.5839 270.849,-161.584 267.3491,-171.584 274.3491,-171.5839"/>
<text text-anchor="middle" x="400.8468" y="-185.4" font-family="Helvetica,sans-Serif" font-size="18.00" fill="#000000">deal_summaries (no parallelism)</text>
</g>
<!-- /tmp/capi_out/fannie_mae_bigtest/deal_summaries.parquet -->
<g id="node14" class="node">
<title>/tmp/capi_out/fannie_mae_bigtest/deal_summaries.parquet</title>
<g id="a_node14"><a xlink:title="Target data file(s)">
<polygon fill="none" stroke="#000000" points="535.5471,-36 .1509,-36 .1509,0 541.5471,0 541.5471,-30 535.5471,-36"/>
<polyline fill="none" stroke="#000000" points="535.5471,-36 535.5471,-30 "/>
<polyline fill="none" stroke="#000000" points="541.5471,-30 535.5471,-30 "/>
<text text-anchor="middle" x="270.849" y="-12" font-family="Helvetica,sans-Serif" font-size="20.00" fill="#000000">/tmp/capi_out/fannie_mae_bigtest/deal_summaries.parquet</text>
</a>
</g>
</g>
<!-- 05_write_file_deal_summaries&#45;&gt;/tmp/capi_out/fannie_mae_bigtest/deal_summaries.parquet -->
<g id="edge16" class="edge">
<title>05_write_file_deal_summaries-&gt;/tmp/capi_out/fannie_mae_bigtest/deal_summaries.parquet</title>
<path fill="none" stroke="#000000" stroke-dasharray="1,5" d="M270.849,-73.2784C270.849,-64.082 270.849,-54.6304 270.849,-46.2016"/>
<polygon fill="#000000" stroke="#000000" points="274.3491,-46.1684 270.849,-36.1685 267.3491,-46.1685 274.3491,-46.1684"/>
</g>
<!-- /tmp/capi_out/fannie_mae_bigtest/loan_summaries_calculated.parquet -->
<g id="node16" class="node">
<title>/tmp/capi_out/fannie_mae_bigtest/loan_summaries_calculated.parquet</title>
<g id="a_node16"><a xlink:title="Target data file(s)">
<polygon fill="none" stroke="#000000" points="1274.189,-135.5 637.509,-135.5 637.509,-99.5 1280.189,-99.5 1280.189,-129.5 1274.189,-135.5"/>
<polyline fill="none" stroke="#000000" points="1274.189,-135.5 1274.189,-129.5 "/>
<polyline fill="none" stroke="#000000" points="1280.189,-129.5 1274.189,-129.5 "/>
<text text-anchor="middle" x="958.849" y="-111.5" font-family="Helvetica,sans-Serif" font-size="20.00" fill="#000000">/tmp/capi_out/fannie_mae_bigtest/loan_summaries_calculated.parquet</text>
</a>
</g>
</g>
<!-- 04_write_file_loan_summaries_calculated&#45;&gt;/tmp/capi_out/fannie_mae_bigtest/loan_summaries_calculated.parquet -->
<g id="edge19" class="edge">
<title>04_write_file_loan_summaries_calculated-&gt;/tmp/capi_out/fannie_mae_bigtest/loan_summaries_calculated.parquet</title>
<path fill="none" stroke="#000000" stroke-dasharray="1,5" d="M958.849,-236.0981C958.849,-207.4232 958.849,-170.845 958.849,-145.9437"/>
<polygon fill="#000000" stroke="#000000" points="962.3491,-145.7194 958.849,-135.7195 955.3491,-145.7195 962.3491,-145.7194"/>
</g>
</g>
</svg>