<?xml version="1.0" encoding="UTF-8"?>
<svg id="Layer_1" data-name="Layer 1"
    xmlns="http://www.w3.org/2000/svg" viewBox="0 0 500 344.9">
    <defs>
        <style>.cls-1 {
        stroke-width: 0px;
      }</style>
    </defs>
    <g id="Group_667" data-name="Group 667">
        <g id="ESG-IllicitFinancialFlows-Icon-K">
            <path id="Path_440" data-name="Path 440" class="cls-1" d="m139.6,69.9l157,98.4v131.7l60.2-20.3,3.3-134.3L203.1,47l-63.5,22.9Z"/>
            <path id="Path_441" data-name="Path 441" class="cls-1" d="m380.7,135.9l119.1-41L348.4,0l-117.4,40.4,149.8,93.7-.1,1.8Z"/>
            <path id="Path_442" data-name="Path 442" class="cls-1" d="m268.5,174.5L117,79.7,0,119.9l151.5,94.8,117-40.2Z"/>
            <path id="Path_443" data-name="Path 443" class="cls-1" d="m0,137.7v15.3l151.5,94.8,124.8-42.9v-15.2l-124.8,42.8L0,137.7Z"/>
            <path id="Path_444" data-name="Path 444" class="cls-1" d="m379.9,169.2l120-41.3v-15.2l-119.6,41.1-.4,15.4Z"/>
            <path id="Path_445" data-name="Path 445" class="cls-1" d="m0,170.1v15.3l151.5,94.9,124.8-42.9v-15.3l-124.8,42.8L0,170.1Z"/>
            <path id="Path_446" data-name="Path 446" class="cls-1" d="m379.1,201.9l120.8-41.6v-15.2l-120.4,41.4-.4,15.4Z"/>
            <path id="Path_447" data-name="Path 447" class="cls-1" d="m0,202.5v15.2l151.5,94.8,124.8-42.9v-15.2l-124.8,42.9L0,202.5Z"/>
            <path id="Path_448" data-name="Path 448" class="cls-1" d="m378.3,234.5l121.6-41.8v-15.3l-121.2,41.7-.4,15.4Z"/>
            <path id="Path_449" data-name="Path 449" class="cls-1" d="m0,234.9v15.2l151.5,94.8,124.8-42.9v-15.2l-124.8,42.9L0,234.9Z"/>
            <path id="Path_450" data-name="Path 450" class="cls-1" d="m377.5,267.2l122.5-42.1v-15.2l-122,42-.5,15.3Z"/>
        </g>
    </g>
</svg>