<svg width="400" height="400" viewBox="0 0 400 400"
   xmlns:svg="http://www.w3.org/2000/svg"
   xmlns:xlink="http://www.w3.org/1999/xlink"
   xmlns="http://www.w3.org/2000/svg">
  <defs>
    <circle cx="0" cy="87" r="2.2" fill="black" id="minMarker"/>
	<line x1="0" y1="95" x2="0" y2="78" stroke-width="3.8" stroke="black" id="hourMarker"/>
    <!-- Original size 500x500-->
    <g id="clock" transform="scale(1,1)">
        <g id="markerSet">
            <use xlink:href="#hourMarker"/>
            <use xlink:href="#minMarker" transform="rotate( 6)"/>
            <use xlink:href="#minMarker" transform="rotate(12)"/>
            <use xlink:href="#minMarker" transform="rotate(18)"/>
            <use xlink:href="#minMarker" transform="rotate(24)"/>
        </g>
        <use xlink:href="#markerSet" transform="rotate( 30)"/>
        <use xlink:href="#markerSet" transform="rotate( 60)"/>
        <use xlink:href="#markerSet" transform="rotate( 90)"/>
        <use xlink:href="#markerSet" transform="rotate(120)"/>
        <use xlink:href="#markerSet" transform="rotate(150)"/>
        <use xlink:href="#markerSet" transform="rotate(180)"/>
        <use xlink:href="#markerSet" transform="rotate(210)"/>
        <use xlink:href="#markerSet" transform="rotate(240)"/>
        <use xlink:href="#markerSet" transform="rotate(270)"/>
        <use xlink:href="#markerSet" transform="rotate(300)"/>
        <use xlink:href="#markerSet" transform="rotate(330)"/>

        <line x1="0" y1="-95" x2="0" y2="0" stroke-width="2.8" stroke="black" transform="rotate(270)"/>
        <line x1="0" y1="-62" x2="0" y2="0" stroke-width="5"   stroke="black" transform="rotate(22.5)"/>
        <circle cx="0" cy="0" r="9" fill="black"/>
    </g>
    <!-- Original 581x1024-->
    <g id="man" transform="scale(0.15)">
        <path fill="#000000" stroke="" stroke-width="2" stroke-linecap="round" stroke-linejoin="round" stroke-miterlimit="10" d="  M738.7,927.9c0,0-8.9-18.7-5.7-35.5l10.1-1.9c0,0-11.8-117.1-12.5-161.4c0,0,4.4-175.1-7.5-200.6c0,0,11.3-8.1,16.8-29.9  c0,0,8.1-21.2,19.3-29.9c0,0,9.3-6.2,8.7-17.4l-81.6-150.8c0,0-8.7-22.4-11.2-24.3c0,0,0-22.4-8.7-28.7c0,0-3.7-51.7-6.9-62.9  c0,0,1.9-23.7-3.7-32.4c0,0,4.4-43,1.2-52.3l-8.7-2.8c0,0-1.4-19.1,1.3-38.6 L655,18.3 c-0.6-5.4-2-8.5-5-8.9  c0,0-9.2-5.8-13.5-4.6c0,0-10.5-4.8-13.6-0.3c0,0-11.8,0.9-12.4,7.2c0,0-6.1,0.1-9.1,6.6 l8,40.1 l-1.5,40.1h-6.4  c0,0-2.5,28.5,2.7,44.3c0,0-7.5,21.2-1.2,33.6c0,0-5,5.6-4.4,16.2c0,0-3.7,21.8,1.9,26.8c5.6,5-2.5,13.9-1.2,17.7s-6.4,7.7-6.4,7.7  h-3.2c0,0,0.9-32.2-32.8-48.4c0,0-52.3-8.7-57.3,39.9c0,0-3.7,27.5,16.8,42.4c0,0-3.1,13.8,2.5,18.1h1.4c0,0-12,12.3-10.8,19.8  c0,0-33,26.8-36.1,31.8c0,0-18.1,6.2-7.5,39.3l5,17.4c0,0-15.6,21.2,0,36.1c0,0,4.4,47.4,11.2,49.2c0,0,8.1,59.8,19.9,61.7  c0,0,6.2,20.6,23.1,23.7c0,0,18.1,57.3,24.3,88.5c0,0,16.2,76,21.2,132.7c0,0,2.7,123.4,8.2,130.2c0,0,6.7,5,13,4.4  c0,0,3.1,5.6,1.2,9.3c0,0-7.5,18.3-4.4,27c0,0-2.5,11.8,6.9,18.3h3.9c0,0-0.2,33.3,31,35.1c0,0,16.1,2.5,18-16.2  c0,0-3.1-24.9-11.2-46.7c0,0-10.6-26.8-6.9-39.9c0,0,3.7,0,6.2-6.9c0,0-2.5-81.6,1.2-91.6c0,0,8.7-102.2,7.5-110.9  c0,0,13.1,45.5,16.2,76c0,0,5.6,57.9,8.7,63.6l5,44.2c0,0,3.1,2.5,11.8,1.2c0,0,6.9,16.8,5,33.6c0,0-4.3,17.4,0.3,25.5  c0,0-0.9,12.5,12.8,20.6l3.4-2.5c0,0,7.2,21.8,35.2,23.7c0,0,21.2,1.9,16.8-18.1C767.4,977.2,753.1,944.8,738.7,927.9z M531.9,488.6  c0-7.5-7.5-20.6-7.5-20.6c6.2-8.1,3.1-19.9,3.1-19.9l6.9,16.8c0,7.5,3.7,30.3,3.7,30.3z"/>
    </g>

    <!-- Original size 500x345-->
          <!-- <g id="money" transform="scale(.2)">
            <path id="Path_440" data-name="Path 440" class="cls-1" d="m139.6,69.9l157,98.4v131.7l60.2-20.3,3.3-134.3L203.1,47l-63.5,22.9Z"/>
            <path id="Path_441" data-name="Path 441" class="cls-1" d="m380.7,135.9l119.1-41L348.4,0l-117.4,40.4,149.8,93.7-.1,1.8Z"/>
            <path id="Path_442" data-name="Path 442" class="cls-1" d="m268.5,174.5L117,79.7,0,119.9l151.5,94.8,117-40.2Z"/>
            <path id="Path_443" data-name="Path 443" class="cls-1" d="m0,137.7v15.3l151.5,94.8,124.8-42.9v-15.2l-124.8,42.8L0,137.7Z"/>
            <path id="Path_444" data-name="Path 444" class="cls-1" d="m379.9,169.2l120-41.3v-15.2l-119.6,41.1-.4,15.4Z"/>
            <path id="Path_445" data-name="Path 445" class="cls-1" d="m0,170.1v15.3l151.5,94.9,124.8-42.9v-15.3l-124.8,42.8L0,170.1Z"/>
            <path id="Path_446" data-name="Path 446" class="cls-1" d="m379.1,201.9l120.8-41.6v-15.2l-120.4,41.4-.4,15.4Z"/>
            <path id="Path_447" data-name="Path 447" class="cls-1" d="m0,202.5v15.2l151.5,94.8,124.8-42.9v-15.2l-124.8,42.9L0,202.5Z"/>
            <path id="Path_448" data-name="Path 448" class="cls-1" d="m378.3,234.5l121.6-41.8v-15.3l-121.2,41.7-.4,15.4Z"/>
            <path id="Path_449" data-name="Path 449" class="cls-1" d="m0,234.9v15.2l151.5,94.8,124.8-42.9v-15.2l-124.8,42.9L0,234.9Z"/>
            <path id="Path_450" data-name="Path 450" class="cls-1" d="m377.5,267.2l122.5-42.1v-15.2l-122,42-.5,15.3Z"/>
        </g> -->
  </defs>

  <rect width="100%" height="100%" fill="#a2d9a1"/>
  <g transform="translate(60,10)">
    <g transform="scale(1.5)">
        <use x="100" y="100" href="#clock"/>
        <use x="-70" y="96" href="#man"/>
        <text x="70.00" y="145.00" style="font-family:verdana;font-size:32">SLA</text>
        <text x="83.00" y="165.00" style="font-family:verdana;font-size:16">60m</text>
    </g>
    <!-- <use x="31" y="284" href="#money"/>
    <use x="-70" y="289" href="#money"/> -->
    <!-- <use x="0" y="238" href="#money"/> -->
  </g>
</svg>