<svg xmlns="http://www.w3.org/2000/svg" xmlns:xlink="http://www.w3.org/1999/xlink" viewBox="-10 -10 2715 2326">
<defs>
<marker id="arrow-0" viewBox="0 0 10 10" refX="5" refY="5" markerWidth="4" markerHeight="4" orient="auto-start-reverse" fill="#000000"><path d="M 0 0 L 10 5 L 0 10 z" /></marker>
<marker id="arrow-1" viewBox="0 0 10 10" refX="5" refY="5" markerWidth="4" markerHeight="4" orient="auto-start-reverse" fill="#023EFF"><path d="M 0 0 L 10 5 L 0 10 z" /></marker>
<marker id="arrow-2" viewBox="0 0 10 10" refX="5" refY="5" markerWidth="4" markerHeight="4" orient="auto-start-reverse" fill="#000000"><path d="M 0 0 L 10 5 L 0 10 z" /></marker>
<marker id="arrow-3" viewBox="0 0 10 10" refX="5" refY="5" markerWidth="4" markerHeight="4" orient="auto-start-reverse" fill="#000000"><path d="M 0 0 L 10 5 L 0 10 z" /></marker>
<marker id="arrow-4" viewBox="0 0 10 10" refX="5" refY="5" markerWidth="4" markerHeight="4" orient="auto-start-reverse" fill="#000000"><path d="M 0 0 L 10 5 L 0 10 z" /></marker>
<marker id="arrow-5" viewBox="0 0 10 10" refX="5" refY="5" markerWidth="4" markerHeight="4" orient="auto-start-reverse" fill="#000000"><path d="M 0 0 L 10 5 L 0 10 z" /></marker>
<marker id="arrow-6" viewBox="0 0 10 10" refX="5" refY="5" markerWidth="4" markerHeight="4" orient="auto-start-reverse" fill="#000000"><path d="M 0 0 L 10 5 L 0 10 z" /></marker>
<marker id="arrow-7" viewBox="0 0 10 10" refX="5" refY="5" markerWidth="4" markerHeight="4" orient="auto-start-reverse" fill="#000000"><path d="M 0 0 L 10 5 L 0 10 z" /></marker>
<marker id="arrow-8" viewBox="0 0 10 10" refX="5" refY="5" markerWidth="4" markerHeight="4" orient="auto-start-reverse" fill="#000000"><path d="M 0 0 L 10 5 L 0 10 z" /></marker>
<marker id="arrow-9" viewBox="0 0 10 10" refX="5" refY="5" markerWidth="4" markerHeight="4" orient="auto-start-reverse" fill="#000000"><path d="M 0 0 L 10 5 L 0 10 z" /></marker>
<marker id="arrow-10" viewBox="0 0 10 10" refX="5" refY="5" markerWidth="4" markerHeight="4" orient="auto-start-reverse" fill="#000000"><path d="M 0 0 L 10 5 L 0 10 z" /></marker>
<marker id="arrow-11" viewBox="0 0 10 10" refX="5" refY="5" markerWidth="4" markerHeight="4" orient="auto-start-reverse" fill="#000000"><path d="M 0 0 L 10 5 L 0 10 z" /></marker>
<marker id="arrow-12" viewBox="0 0 10 10" refX="5" refY="5" markerWidth="4" markerHeight="4" orient="auto-start-reverse" fill="#000000"><path d="M 0 0 L 10 5 L 0 10 z" /></marker>
<marker id="arrow-13" viewBox="0 0 10 10" refX="5" refY="5" markerWidth="4" markerHeight="4" orient="auto-start-reverse" fill="#000000"><path d="M 0 0 L 10 5 L 0 10 z" /></marker>

<g id="icon-database-table-distinct">
  <g transform="scale(0.56) translate(2,61)">
    <path fill-rule="evenodd"
      d="M16.49,24.88C24.05,27.41,34.57,29,46.26,29S68.48,27.41,76,24.88c6.63-2.22,10.73-4.9,10.73-7.52S82.67,12.06,76,9.84C68.48,7.33,58,5.75,46.27,5.75S24.06,7.33,16.49,9.84c-14.06,4.7-14.46,10.21,0,15ZM64.91,55.34h48.73a9.27,9.27,0,0,1,9.24,9.24v42.58a9.27,9.27,0,0,1-9.24,9.25H64.91a9.27,9.27,0,0,1-9.24-9.25V64.58a9.27,9.27,0,0,1,9.24-9.24ZM91.09,99.18H118v12H91.09v-12Zm-30.89,0H87.13v12H60.2v-12Zm0-31.89H87.13v12H60.2v-12Zm0,15.94H87.13v12H60.2v-12ZM91.09,67.29H118v12H91.09v-12Zm0,15.94H118v12H91.09v-12ZM5.82,45.77c.52,2.45,4.5,4.91,10.68,7,7.22,2.42,17.16,3.95,28.24,4.08v5.77c-11.67-.13-22.25-1.78-30.05-4.39A35.86,35.86,0,0,1,5.84,54V71.27c.52,2.45,4.5,4.91,10.68,7,7.22,2.4,17.15,3.94,28.22,4.07v5.75c-11.67-.14-22.25-1.78-30.05-4.4A36.08,36.08,0,0,1,5.83,79.5V96.75c.52,2.45,4.51,4.91,10.68,7,7.22,2.41,17.16,4,28.23,4.08v5.75c-11.67-.13-22.24-1.78-30-4.4C10.4,107.72,0,103,0,97.38V95.55C0,69.86,0,43.06,0,17.41c0-5.43,5.61-10,14.66-13C22.82,1.68,34,0,46.27,0S69.7,1.68,77.87,4.41s13.64,6.78,14.55,11.53a3,3,0,0,1,.16,1v28.6H86.8V26.09a36.69,36.69,0,0,1-8.93,4.22c-8.15,2.75-19.31,4.41-31.58,4.41S22.83,33,14.66,30.31A36.26,36.26,0,0,1,5.8,26.14V45.77Z" />
  </g>
  <g transform="scale(0.9) translate(37,-25)">
    <path class="cls-1" d="m32.8,63.61h-6.75V28.44h6.75v35.17Z"/>
    <path class="cls-1" d="m40.45,28.44h17.35c4.85,0,7.91.95,9.91,3.01,2.53,2.58,3.38,5.59,3.38,11.71,0,9.76-.32,12.6-1.63,15.13-1.95,3.69-5.48,5.33-11.44,5.33h-17.56V28.44Zm16.24,29.37c3.22,0,5.01-.63,6.06-2.11,1.16-1.63,1.48-3.74,1.48-9.76s-.26-8.12-1.37-9.65c-1-1.42-2.64-2-5.75-2h-9.91v23.52h9.49Z"/>
  </g>
</g>
<g id="icon-database-table-copy">
  <g transform="scale(0.56) translate(2,61)">
    <path fill-rule="evenodd"
      d="M16.49,24.88C24.05,27.41,34.57,29,46.26,29S68.48,27.41,76,24.88c6.63-2.22,10.73-4.9,10.73-7.52S82.67,12.06,76,9.84C68.48,7.33,58,5.75,46.27,5.75S24.06,7.33,16.49,9.84c-14.06,4.7-14.46,10.21,0,15ZM64.91,55.34h48.73a9.27,9.27,0,0,1,9.24,9.24v42.58a9.27,9.27,0,0,1-9.24,9.25H64.91a9.27,9.27,0,0,1-9.24-9.25V64.58a9.27,9.27,0,0,1,9.24-9.24ZM91.09,99.18H118v12H91.09v-12Zm-30.89,0H87.13v12H60.2v-12Zm0-31.89H87.13v12H60.2v-12Zm0,15.94H87.13v12H60.2v-12ZM91.09,67.29H118v12H91.09v-12Zm0,15.94H118v12H91.09v-12ZM5.82,45.77c.52,2.45,4.5,4.91,10.68,7,7.22,2.42,17.16,3.95,28.24,4.08v5.77c-11.67-.13-22.25-1.78-30.05-4.39A35.86,35.86,0,0,1,5.84,54V71.27c.52,2.45,4.5,4.91,10.68,7,7.22,2.4,17.15,3.94,28.22,4.07v5.75c-11.67-.14-22.25-1.78-30.05-4.4A36.08,36.08,0,0,1,5.83,79.5V96.75c.52,2.45,4.51,4.91,10.68,7,7.22,2.41,17.16,4,28.23,4.08v5.75c-11.67-.13-22.24-1.78-30-4.4C10.4,107.72,0,103,0,97.38V95.55C0,69.86,0,43.06,0,17.41c0-5.43,5.61-10,14.66-13C22.82,1.68,34,0,46.27,0S69.7,1.68,77.87,4.41s13.64,6.78,14.55,11.53a3,3,0,0,1,.16,1v28.6H86.8V26.09a36.69,36.69,0,0,1-8.93,4.22c-8.15,2.75-19.31,4.41-31.58,4.41S22.83,33,14.66,30.31A36.26,36.26,0,0,1,5.8,26.14V45.77Z" />
  </g>
  <g transform="scale(0.35) translate(160,5)">
    <path fill-rule="evenodd"
      d="M16.49,24.88C24.05,27.41,34.57,29,46.26,29S68.48,27.41,76,24.88c6.63-2.22,10.73-4.9,10.73-7.52S82.67,12.06,76,9.84C68.48,7.33,58,5.75,46.27,5.75S24.06,7.33,16.49,9.84c-14.06,4.7-14.46,10.21,0,15ZM64.91,55.34h48.73a9.27,9.27,0,0,1,9.24,9.24v42.58a9.27,9.27,0,0,1-9.24,9.25H64.91a9.27,9.27,0,0,1-9.24-9.25V64.58a9.27,9.27,0,0,1,9.24-9.24ZM91.09,99.18H118v12H91.09v-12Zm-30.89,0H87.13v12H60.2v-12Zm0-31.89H87.13v12H60.2v-12Zm0,15.94H87.13v12H60.2v-12ZM91.09,67.29H118v12H91.09v-12Zm0,15.94H118v12H91.09v-12ZM5.82,45.77c.52,2.45,4.5,4.91,10.68,7,7.22,2.42,17.16,3.95,28.24,4.08v5.77c-11.67-.13-22.25-1.78-30.05-4.39A35.86,35.86,0,0,1,5.84,54V71.27c.52,2.45,4.5,4.91,10.68,7,7.22,2.4,17.15,3.94,28.22,4.07v5.75c-11.67-.14-22.25-1.78-30.05-4.4A36.08,36.08,0,0,1,5.83,79.5V96.75c.52,2.45,4.51,4.91,10.68,7,7.22,2.41,17.16,4,28.23,4.08v5.75c-11.67-.13-22.24-1.78-30-4.4C10.4,107.72,0,103,0,97.38V95.55C0,69.86,0,43.06,0,17.41c0-5.43,5.61-10,14.66-13C22.82,1.68,34,0,46.27,0S69.7,1.68,77.87,4.41s13.64,6.78,14.55,11.53a3,3,0,0,1,.16,1v28.6H86.8V26.09a36.69,36.69,0,0,1-8.93,4.22c-8.15,2.75-19.31,4.41-31.58,4.41S22.83,33,14.66,30.31A36.26,36.26,0,0,1,5.8,26.14V45.77Z" />
  </g>
</g>
<g id="icon-database-table-read">
  <g transform="scale(0.56) translate(2,61)">
    <path fill-rule="evenodd"
      d="M16.49,24.88C24.05,27.41,34.57,29,46.26,29S68.48,27.41,76,24.88c6.63-2.22,10.73-4.9,10.73-7.52S82.67,12.06,76,9.84C68.48,7.33,58,5.75,46.27,5.75S24.06,7.33,16.49,9.84c-14.06,4.7-14.46,10.21,0,15ZM64.91,55.34h48.73a9.27,9.27,0,0,1,9.24,9.24v42.58a9.27,9.27,0,0,1-9.24,9.25H64.91a9.27,9.27,0,0,1-9.24-9.25V64.58a9.27,9.27,0,0,1,9.24-9.24ZM91.09,99.18H118v12H91.09v-12Zm-30.89,0H87.13v12H60.2v-12Zm0-31.89H87.13v12H60.2v-12Zm0,15.94H87.13v12H60.2v-12ZM91.09,67.29H118v12H91.09v-12Zm0,15.94H118v12H91.09v-12ZM5.82,45.77c.52,2.45,4.5,4.91,10.68,7,7.22,2.42,17.16,3.95,28.24,4.08v5.77c-11.67-.13-22.25-1.78-30.05-4.39A35.86,35.86,0,0,1,5.84,54V71.27c.52,2.45,4.5,4.91,10.68,7,7.22,2.4,17.15,3.94,28.22,4.07v5.75c-11.67-.14-22.25-1.78-30.05-4.4A36.08,36.08,0,0,1,5.83,79.5V96.75c.52,2.45,4.51,4.91,10.68,7,7.22,2.41,17.16,4,28.23,4.08v5.75c-11.67-.13-22.24-1.78-30-4.4C10.4,107.72,0,103,0,97.38V95.55C0,69.86,0,43.06,0,17.41c0-5.43,5.61-10,14.66-13C22.82,1.68,34,0,46.27,0S69.7,1.68,77.87,4.41s13.64,6.78,14.55,11.53a3,3,0,0,1,.16,1v28.6H86.8V26.09a36.69,36.69,0,0,1-8.93,4.22c-8.15,2.75-19.31,4.41-31.58,4.41S22.83,33,14.66,30.31A36.26,36.26,0,0,1,5.8,26.14V45.77Z" />
  </g>
  <g transform="scale(0.1) translate(540,20)">
    <path fill-rule="nonzero"
      d="M117.91 0h201.68c3.93 0 7.44 1.83 9.72 4.67l114.28 123.67c2.21 2.37 3.27 5.4 3.27 8.41l.06 310c0 35.43-29.4 64.81-64.8 64.81H117.91c-35.57 0-64.81-29.24-64.81-64.81V64.8C53.1 29.13 82.23 0 117.91 0zM325.5 37.15v52.94c2.4 31.34 23.57 42.99 52.93 43.5l36.16-.04-89.09-96.4zm96.5 121.3l-43.77-.04c-42.59-.68-74.12-21.97-77.54-66.54l-.09-66.95H117.91c-21.93 0-39.89 17.96-39.89 39.88v381.95c0 21.82 18.07 39.89 39.89 39.89h264.21c21.71 0 39.88-18.15 39.88-39.89v-288.3z" />
  </g>
</g>
<g id="icon-database-table-join">
  <g transform="scale(0.56) translate(2,61)">
    <path fill-rule="evenodd"
      d="M16.49,24.88C24.05,27.41,34.57,29,46.26,29S68.48,27.41,76,24.88c6.63-2.22,10.73-4.9,10.73-7.52S82.67,12.06,76,9.84C68.48,7.33,58,5.75,46.27,5.75S24.06,7.33,16.49,9.84c-14.06,4.7-14.46,10.21,0,15ZM64.91,55.34h48.73a9.27,9.27,0,0,1,9.24,9.24v42.58a9.27,9.27,0,0,1-9.24,9.25H64.91a9.27,9.27,0,0,1-9.24-9.25V64.58a9.27,9.27,0,0,1,9.24-9.24ZM91.09,99.18H118v12H91.09v-12Zm-30.89,0H87.13v12H60.2v-12Zm0-31.89H87.13v12H60.2v-12Zm0,15.94H87.13v12H60.2v-12ZM91.09,67.29H118v12H91.09v-12Zm0,15.94H118v12H91.09v-12ZM5.82,45.77c.52,2.45,4.5,4.91,10.68,7,7.22,2.42,17.16,3.95,28.24,4.08v5.77c-11.67-.13-22.25-1.78-30.05-4.39A35.86,35.86,0,0,1,5.84,54V71.27c.52,2.45,4.5,4.91,10.68,7,7.22,2.4,17.15,3.94,28.22,4.07v5.75c-11.67-.14-22.25-1.78-30.05-4.4A36.08,36.08,0,0,1,5.83,79.5V96.75c.52,2.45,4.51,4.91,10.68,7,7.22,2.41,17.16,4,28.23,4.08v5.75c-11.67-.13-22.24-1.78-30-4.4C10.4,107.72,0,103,0,97.38V95.55C0,69.86,0,43.06,0,17.41c0-5.43,5.61-10,14.66-13C22.82,1.68,34,0,46.27,0S69.7,1.68,77.87,4.41s13.64,6.78,14.55,11.53a3,3,0,0,1,.16,1v28.6H86.8V26.09a36.69,36.69,0,0,1-8.93,4.22c-8.15,2.75-19.31,4.41-31.58,4.41S22.83,33,14.66,30.31A36.26,36.26,0,0,1,5.8,26.14V45.77Z" />
  </g>
  <g transform="scale(0.1) translate(500,50)">
    <path fill-rule="nonzero"
      d="M303.633 363.721c10.832-11.26 28.745-11.608 40.007-.776 11.26 10.832 11.608 28.745.776 40.006l-91.965 95.954c-5.07 7.72-13.8 12.824-23.727 12.824-1.387 0-2.75-.1-4.079-.296l-.239-.033a28.149 28.149 0 01-15.859-7.649l-96.64-100.8c-10.832-11.261-10.484-29.174.777-40.006s29.174-10.484 40.006.776l47.665 49.733V258.99c0-50.724-20.558-101.577-53.822-139.863-31.152-35.856-73.279-60.35-119.571-62.576C11.355 55.817-.702 42.569.032 26.962.766 11.355 14.014-.702 29.621.032c62.738 3.021 118.895 35.136 159.687 82.086 15.498 17.837 28.798 37.876 39.416 59.302 10.579-21.35 23.828-41.327 39.253-59.121C308.656 35.368 364.703 3.22 427.379.051c15.607-.734 28.855 11.323 29.589 26.93.734 15.607-11.323 28.855-26.93 29.589-46.168 2.335-88.19 26.868-119.285 62.738-33.168 38.253-53.66 89.029-53.66 139.682v153.292l46.54-48.561z" />
  </g>
</g>
<g id="icon-database-table-py">
  <g transform="scale(0.56) translate(2,61)">
    <path fill-rule="evenodd"
      d="M16.49,24.88C24.05,27.41,34.57,29,46.26,29S68.48,27.41,76,24.88c6.63-2.22,10.73-4.9,10.73-7.52S82.67,12.06,76,9.84C68.48,7.33,58,5.75,46.27,5.75S24.06,7.33,16.49,9.84c-14.06,4.7-14.46,10.21,0,15ZM64.91,55.34h48.73a9.27,9.27,0,0,1,9.24,9.24v42.58a9.27,9.27,0,0,1-9.24,9.25H64.91a9.27,9.27,0,0,1-9.24-9.25V64.58a9.27,9.27,0,0,1,9.24-9.24ZM91.09,99.18H118v12H91.09v-12Zm-30.89,0H87.13v12H60.2v-12Zm0-31.89H87.13v12H60.2v-12Zm0,15.94H87.13v12H60.2v-12ZM91.09,67.29H118v12H91.09v-12Zm0,15.94H118v12H91.09v-12ZM5.82,45.77c.52,2.45,4.5,4.91,10.68,7,7.22,2.42,17.16,3.95,28.24,4.08v5.77c-11.67-.13-22.25-1.78-30.05-4.39A35.86,35.86,0,0,1,5.84,54V71.27c.52,2.45,4.5,4.91,10.68,7,7.22,2.4,17.15,3.94,28.22,4.07v5.75c-11.67-.14-22.25-1.78-30.05-4.4A36.08,36.08,0,0,1,5.83,79.5V96.75c.52,2.45,4.51,4.91,10.68,7,7.22,2.41,17.16,4,28.23,4.08v5.75c-11.67-.13-22.24-1.78-30-4.4C10.4,107.72,0,103,0,97.38V95.55C0,69.86,0,43.06,0,17.41c0-5.43,5.61-10,14.66-13C22.82,1.68,34,0,46.27,0S69.7,1.68,77.87,4.41s13.64,6.78,14.55,11.53a3,3,0,0,1,.16,1v28.6H86.8V26.09a36.69,36.69,0,0,1-8.93,4.22c-8.15,2.75-19.31,4.41-31.58,4.41S22.83,33,14.66,30.31A36.26,36.26,0,0,1,5.8,26.14V45.77Z" />
  </g>
  <g transform="scale(2.1) translate(24,0)">
    <path d="m9.8594 2.0009c-1.58 0-2.8594 1.2794-2.8594 2.8594v1.6797h4.2891c.39 0 .71094.57094.71094.96094h-7.1406c-1.58 0-2.8594 1.2794-2.8594 2.8594v3.7812c0 1.58 1.2794 2.8594 2.8594 2.8594h1.1797v-2.6797c0-1.58 1.2716-2.8594 2.8516-2.8594h5.25c1.58 0 2.8594-1.2716 2.8594-2.8516v-3.75c0-1.58-1.2794-2.8594-2.8594-2.8594zm-.71875 1.6094c.4 0 .71875.12094.71875.71094s-.31875.89062-.71875.89062c-.39 0-.71094-.30062-.71094-.89062s.32094-.71094.71094-.71094z"/>
    <path d="m17.959 7v2.6797c0 1.58-1.2696 2.8594-2.8496 2.8594h-5.25c-1.58 0-2.8594 1.2696-2.8594 2.8496v3.75a2.86 2.86 0 0 0 2.8594 2.8613h4.2812a2.86 2.86 0 0 0 2.8594 -2.8613v-1.6797h-4.291c-.39 0-.70898-.56898-.70898-.95898h7.1406a2.86 2.86 0 0 0 2.8594 -2.8613v-3.7793a2.86 2.86 0 0 0 -2.8594 -2.8594zm-9.6387 4.5137-.0039.0039c.01198-.0024.02507-.0016.03711-.0039zm6.5391 7.2754c.39 0 .71094.30062.71094.89062a.71 .71 0 0 1 -.71094 .70898c-.4 0-.71875-.11898-.71875-.70898s.31875-.89062.71875-.89062z"/>
  </g>
</g>
<g id="icon-database-table-tag">
  <g transform="scale(0.56) translate(2,61)">
    <path fill-rule="evenodd"
      d="M16.49,24.88C24.05,27.41,34.57,29,46.26,29S68.48,27.41,76,24.88c6.63-2.22,10.73-4.9,10.73-7.52S82.67,12.06,76,9.84C68.48,7.33,58,5.75,46.27,5.75S24.06,7.33,16.49,9.84c-14.06,4.7-14.46,10.21,0,15ZM64.91,55.34h48.73a9.27,9.27,0,0,1,9.24,9.24v42.58a9.27,9.27,0,0,1-9.24,9.25H64.91a9.27,9.27,0,0,1-9.24-9.25V64.58a9.27,9.27,0,0,1,9.24-9.24ZM91.09,99.18H118v12H91.09v-12Zm-30.89,0H87.13v12H60.2v-12Zm0-31.89H87.13v12H60.2v-12Zm0,15.94H87.13v12H60.2v-12ZM91.09,67.29H118v12H91.09v-12Zm0,15.94H118v12H91.09v-12ZM5.82,45.77c.52,2.45,4.5,4.91,10.68,7,7.22,2.42,17.16,3.95,28.24,4.08v5.77c-11.67-.13-22.25-1.78-30.05-4.39A35.86,35.86,0,0,1,5.84,54V71.27c.52,2.45,4.5,4.91,10.68,7,7.22,2.4,17.15,3.94,28.22,4.07v5.75c-11.67-.14-22.25-1.78-30.05-4.4A36.08,36.08,0,0,1,5.83,79.5V96.75c.52,2.45,4.51,4.91,10.68,7,7.22,2.41,17.16,4,28.23,4.08v5.75c-11.67-.13-22.24-1.78-30-4.4C10.4,107.72,0,103,0,97.38V95.55C0,69.86,0,43.06,0,17.41c0-5.43,5.61-10,14.66-13C22.82,1.68,34,0,46.27,0S69.7,1.68,77.87,4.41s13.64,6.78,14.55,11.53a3,3,0,0,1,.16,1v28.6H86.8V26.09a36.69,36.69,0,0,1-8.93,4.22c-8.15,2.75-19.31,4.41-31.58,4.41S22.83,33,14.66,30.31A36.26,36.26,0,0,1,5.8,26.14V45.77Z" />
  </g>
  <g transform="scale(0.25) translate(260,15)">
    <path fill-rule="evenodd" clip-rule="evenodd"
      d="M64.534,2.334l7.463,0.472c0.513-0.035,1.034-0.063,1.567-0.082L120.7,54.051 c3.183,3.465,2.819,8.945-0.69,12.076l-41.5,37c-3.037,2.709-7.527,2.838-10.707,0.541l42.466-37.861 c3.74-3.336,4.128-9.18,0.736-12.871L64.534,2.334L64.534,2.334z M53.067,3.185l45.534,49.581 c3.074,3.348,2.723,8.643-0.667,11.666l-40.089,35.744c-3.387,3.02-8.645,2.719-11.666-0.67L3.422,51.541l0.082-1.414L0,0 l51.549,3.264C52.045,3.23,52.551,3.203,53.067,3.185L53.067,3.185z M20.058,9.77c5.104,0.112,9.154,4.345,9.042,9.45 s-4.345,9.155-9.45,9.042c-5.105-0.112-9.154-4.345-9.042-9.45C10.72,13.707,14.953,9.657,20.058,9.77L20.058,9.77z M28.251,44.743 l29.426,32.062l-5.865,5.385L22.386,50.125L28.251,44.743L28.251,44.743z M41.265,33.13l29.429,32.061l-5.867,5.383L35.399,38.513 L41.265,33.13L41.265,33.13z M53.091,22.061L82.52,54.125l-5.867,5.383L47.226,27.447L53.091,22.061L53.091,22.061z" />
  </g>
  <g transform="scale(0.28) translate(220,120)">
    <path fill-rule="evenodd" clip-rule="evenodd" stroke="#000000" stroke-width="0.5"
      d="M23.838,62.429 L0.352,85.799l23.486,24.071V94.695c15.025,0.074,26.659-4.704,34.892-14.394c1.013-1.192,1.965-2.454,2.855-3.786 c0.995,1.562,2.069,3.023,3.223,4.382c8.24,9.698,19.891,14.477,34.936,14.393v15.175l23.486-24.07l-23.486-23.37v13.3 c-9.197,0.059-16.012-2.497-20.432-7.699c-4.93-5.8-7.615-15.109-8.055-27.966V0.25H52.281v40.4 c-0.438,12.861-3.125,21.578-8.054,27.38c-4.414,5.193-11.213,7.749-20.389,7.698V62.429L23.838,62.429z" />
  </g>
</g>
<g id="icon-database-table" transform="scale(0.8,0.8) translate(139,4)">
  <path fill-rule="evenodd"
    d="M16.49,24.88C24.05,27.41,34.57,29,46.26,29S68.48,27.41,76,24.88c6.63-2.22,10.73-4.9,10.73-7.52S82.67,12.06,76,9.84C68.48,7.33,58,5.75,46.27,5.75S24.06,7.33,16.49,9.84c-14.06,4.7-14.46,10.21,0,15ZM64.91,55.34h48.73a9.27,9.27,0,0,1,9.24,9.24v42.58a9.27,9.27,0,0,1-9.24,9.25H64.91a9.27,9.27,0,0,1-9.24-9.25V64.58a9.27,9.27,0,0,1,9.24-9.24ZM91.09,99.18H118v12H91.09v-12Zm-30.89,0H87.13v12H60.2v-12Zm0-31.89H87.13v12H60.2v-12Zm0,15.94H87.13v12H60.2v-12ZM91.09,67.29H118v12H91.09v-12Zm0,15.94H118v12H91.09v-12ZM5.82,45.77c.52,2.45,4.5,4.91,10.68,7,7.22,2.42,17.16,3.95,28.24,4.08v5.77c-11.67-.13-22.25-1.78-30.05-4.39A35.86,35.86,0,0,1,5.84,54V71.27c.52,2.45,4.5,4.91,10.68,7,7.22,2.4,17.15,3.94,28.22,4.07v5.75c-11.67-.14-22.25-1.78-30.05-4.4A36.08,36.08,0,0,1,5.83,79.5V96.75c.52,2.45,4.51,4.91,10.68,7,7.22,2.41,17.16,4,28.23,4.08v5.75c-11.67-.13-22.24-1.78-30-4.4C10.4,107.72,0,103,0,97.38V95.55C0,69.86,0,43.06,0,17.41c0-5.43,5.61-10,14.66-13C22.82,1.68,34,0,46.27,0S69.7,1.68,77.87,4.41s13.64,6.78,14.55,11.53a3,3,0,0,1,.16,1v28.6H86.8V26.09a36.69,36.69,0,0,1-8.93,4.22c-8.15,2.75-19.31,4.41-31.58,4.41S22.83,33,14.66,30.31A36.26,36.26,0,0,1,5.8,26.14V45.77Z" />
</g>
<g id="icon-csv">
  <g transform="scale(0.193,0.193) translate(11,3)">
    <path fill-rule="nonzero"
      d="M117.91 0h201.68c3.93 0 7.44 1.83 9.72 4.67l114.28 123.67c2.21 2.37 3.27 5.4 3.27 8.41l.06 310c0 35.43-29.4 64.81-64.8 64.81H117.91c-35.57 0-64.81-29.24-64.81-64.81V64.8C53.1 29.13 82.23 0 117.91 0zM325.5 37.15v52.94c2.4 31.34 23.57 42.99 52.93 43.5l36.16-.04-89.09-96.4zm96.5 121.3l-43.77-.04c-42.59-.68-74.12-21.97-77.54-66.54l-.09-66.95H117.91c-21.93 0-39.89 17.96-39.89 39.88v381.95c0 21.82 18.07 39.89 39.89 39.89h264.21c21.71 0 39.88-18.15 39.88-39.89v-288.3z" />
  </g>
  <g transform="scale(0.25) translate(12,60)">
    <path fill-rule="nonzero"
      d="M133.97 242.65l1.98 22.2c-5.54 2.29-12.5 3.44-20.87 3.44-8.37 0-15.09-.88-20.16-2.65-5.06-1.76-9.05-4.53-11.95-8.32-2.91-3.79-4.94-8.24-6.08-13.35-1.15-5.11-1.72-11.4-1.72-18.89s.57-13.81 1.72-18.96c1.14-5.16 3.17-9.63 6.08-13.42 5.63-7.31 15.99-10.96 31.05-10.96 3.35 0 7.29.33 11.82.99 4.54.66 7.91 1.47 10.11 2.44l-3.96 20.22c-5.73-1.23-10.97-1.85-15.72-1.85-4.76 0-8.07.44-9.92 1.32-1.84.88-2.77 2.64-2.77 5.29v34.62c3.43.7 6.91 1.05 10.44 1.05 7.49 0 14.14-1.05 19.95-3.17zm11.9 22.2l3.69-21.8c8.11 2.03 15.4 3.04 21.87 3.04 6.48 0 11.7-.27 15.66-.79v-6.61l-11.89-1.06c-10.75-.97-18.13-3.54-22.13-7.73-4.01-4.18-6.02-10.37-6.02-18.56 0-11.28 2.45-19.03 7.34-23.26s13.19-6.34 24.91-6.34 22.28 1.1 31.71 3.3l-3.3 21.14c-8.19-1.32-14.76-1.98-19.69-1.98-4.93 0-9.12.22-12.56.66v6.48l9.52.92c11.54 1.15 19.51 3.9 23.92 8.26 4.4 4.36 6.6 10.42 6.6 18.17 0 5.55-.74 10.24-2.24 14.07-1.5 3.83-3.28 6.74-5.35 8.72-2.07 1.99-5 3.5-8.79 4.56-3.79 1.06-7.11 1.7-9.98 1.92-2.86.22-6.67.33-11.43.33-11.45 0-22.07-1.15-31.84-3.44zm128.57-81.13h27.88l-20.48 82.59h-38.59l-20.48-82.59h27.88l11.24 52.46h1.19l11.36-52.46z" />
  </g>
</g>
<g id="icon-parquet" transform="scale(0.193,0.193) translate(11,3)">
  <path fill-rule="nonzero"
    d="M117.91 0h201.68c3.93 0 7.44 1.83 9.72 4.67l114.28 123.67c2.21 2.37 3.27 5.4 3.27 8.41l.06 310c0 35.43-29.4 64.81-64.8 64.81H117.91c-35.57 0-64.81-29.24-64.81-64.81V64.8C53.1 29.13 82.23 0 117.91 0zM325.5 37.15v52.94c2.4 31.34 23.57 42.99 52.93 43.5l36.16-.04-89.09-96.4zm96.5 121.3l-43.77-.04c-42.59-.68-74.12-21.97-77.54-66.54l-.09-66.95H117.91c-21.93 0-39.89 17.96-39.89 39.88v381.95c0 21.82 18.07 39.89 39.89 39.89h264.21c21.71 0 39.88-18.15 39.88-39.89v-288.3z" />
  <g transform="scale(5,5) translate(18,45)">
    <path class="b"
      d="M29,47.3c-2.5-2.7-2.6-2.8-2.1-3.3,.7-.8,31.4-28.9,31.8-29.1,.4-.2,4.1,1.6,5,2.4,.3,.3-2.1,2.9-15.5,16.5-8.7,8.9-16,16.2-16.2,16.2-.2,0-1.5-1.2-3-2.7h0Z" />
    <path class="b"
      d="M22.1,40.1c-1.4-1.4-2.2-2.4-2.1-2.7,.2-.4,17.8-14.7,18.1-14.6,.4,0,4.6,3.2,4.6,3.5s-17.7,16.1-18.1,16.1-1.2-1-2.5-2.3h0Z" />
    <path class="b"
      d="M15.7,33.6c-1.1-1.2-1.7-2.2-1.6-2.3,.7-.7,8.4-6,8.7-6,.4,0,4.1,3.2,4.1,3.5s-8.3,6.8-8.9,6.8-1.3-.9-2.3-2.1Z" />
    <path class="b"
      d="M10.4,28.2c-1.5-1.5-1.7-1.8-1.4-2.2,.5-.5,24.9-16.2,25.4-16.4,.4-.1,3.8,1.9,3.8,2.3S13.2,29.7,12.6,29.8c-.2,0-1.2-.6-2.2-1.7h0Z" />
    <path class="b"
      d="M26.7,25.7c-1-.8-1.8-1.7-1.8-1.8,0-.2,.9-.9,2-1.7,1.1-.8,5.9-4.2,10.8-7.7,4.8-3.5,9-6.3,9.2-6.3,.7,0,3.9,1.9,3.8,2.2-.2,.5-21.3,16.8-21.7,16.8-.2,0-1.2-.7-2.2-1.5h0Z" />
    <path class="b"
      d="M5.5,23.2c-1.2-1.3-1.4-1.6-1.1-1.9,.3-.2,15.4-9.2,17.2-10.2,.3-.2,3.5,2.1,3.4,2.5-.1,.4-17.2,11.1-17.7,11.1-.2,0-1.1-.7-1.9-1.5h0Z" />
    <path class="b"
      d="M42,23.3c-1.1-.8-2.1-1.6-2.1-1.7,0-.2,9.9-8.5,12.2-10.1,.4-.3,.8-.2,2.7,.8,1.2,.6,2.2,1.3,2.2,1.4,0,.4-11.9,10.9-12.5,11-.3,0-1.4-.6-2.5-1.4h0Z" />
    <path class="b"
      d="M1.5,18.9l-1.5-1.5,.6-.4c.4-.2,7.5-4.2,16-8.7L32,0l1.5,.7c.8,.4,1.5,.9,1.5,1S3.4,20.4,3,20.4s-.7-.7-1.5-1.5h0Z" />
    <path class="b"
      d="M25,11.5c-.7-.5-1.3-1.1-1.3-1.3,0-.2,2.9-2,6.4-4.1l6.4-3.8,1.6,.9c.9,.5,1.6,1,1.6,1.1,0,.3-12.5,8.2-13,8.1-.2,0-1-.4-1.7-1h0Z" />
    <path class="b"
      d="M37.8,9.9c-.9-.5-1.6-1.1-1.6-1.3,0-.3,4.4-3.2,5.1-3.4,.3,0,3.3,1.5,3.5,1.8,0,.1,0,.4-.3,.6-.9,.8-4.5,3.2-4.8,3.2-.2,0-1-.4-1.9-1h0Z" />
  </g>
</g></defs>
<style>
.viz-background {fill:white;opacity:1.0}
.rect-node-background {fill:white; rx:10; ry:10; stroke-width:0;opacity:0.7}
.rect-node {fill:none; rx:10; ry:10; stroke:black; stroke-width:1;}
.rect-selected-node {fill:transparent; rx:10; ry:10; stroke-width:5; stroke:black; opacity:1.0}
.rect-edge-label-background {fill:white; rx:10; ry:10; stroke-width:0; opacity:0.7;}
.rect-edge-label-pri {fill:none; rx:10; ry:10; stroke:#606060; stroke-width:1;}
.rect-edge-label-sec {fill:none; rx:10; ry:10; stroke:#606060; stroke-width:1; stroke-dasharray:5;}
.text-node {font-family:verdana; font-weight:normal; font-size:20px; text-anchor:start; alignment-baseline:hanging; fill:black;}
.text-edge-label {font-family:arial; font-weight:normal; font-size:18px; text-anchor:start; alignment-baseline:hanging; fill:#606060;}
.path-edge-pri {stroke-width:2.00;fill:transparent;stroke:black;}
.path-edge-sec {stroke-width:2.00;stroke-dasharray:5;fill:transparent;stroke:black;}
.path-edge-pri-0 {marker-end:url(#arrow-0);stroke:#000000}
.path-edge-sec-0 {marker-end:url(#arrow-0);stroke:#000000}
.rect-edge-label-pri-0 {stroke:#000000}
.rect-edge-label-sec-0 {stroke:#000000}
.rect-node-background-0 {fill:#FFFFFF;opacity:0.2}
.rect-node-0 {stroke:#000000}
.path-edge-pri-1 {marker-end:url(#arrow-1);stroke:#023EFF}
.path-edge-sec-1 {marker-end:url(#arrow-1);stroke:#023EFF}
.rect-edge-label-pri-1 {stroke:#023EFF}
.rect-edge-label-sec-1 {stroke:#023EFF}
.rect-node-background-1 {fill:#023EFF;opacity:0.2}
.rect-node-1 {stroke:#023EFF}
.path-edge-pri-2 {marker-end:url(#arrow-2);stroke:#000000}
.path-edge-sec-2 {marker-end:url(#arrow-2);stroke:#000000}
.rect-edge-label-pri-2 {stroke:#000000}
.rect-edge-label-sec-2 {stroke:#000000}
.rect-node-background-2 {fill:#FFFFFF;opacity:0.2}
.rect-node-2 {stroke:#000000}
.path-edge-pri-3 {marker-end:url(#arrow-3);stroke:#000000}
.path-edge-sec-3 {marker-end:url(#arrow-3);stroke:#000000}
.rect-edge-label-pri-3 {stroke:#000000}
.rect-edge-label-sec-3 {stroke:#000000}
.rect-node-background-3 {fill:#FFFFFF;opacity:0.2}
.rect-node-3 {stroke:#000000}
.path-edge-pri-4 {marker-end:url(#arrow-4);stroke:#000000}
.path-edge-sec-4 {marker-end:url(#arrow-4);stroke:#000000}
.rect-edge-label-pri-4 {stroke:#000000}
.rect-edge-label-sec-4 {stroke:#000000}
.rect-node-background-4 {fill:#FFFFFF;opacity:0.2}
.rect-node-4 {stroke:#000000}
.path-edge-pri-5 {marker-end:url(#arrow-5);stroke:#000000}
.path-edge-sec-5 {marker-end:url(#arrow-5);stroke:#000000}
.rect-edge-label-pri-5 {stroke:#000000}
.rect-edge-label-sec-5 {stroke:#000000}
.rect-node-background-5 {fill:#FFFFFF;opacity:0.2}
.rect-node-5 {stroke:#000000}
.path-edge-pri-6 {marker-end:url(#arrow-6);stroke:#000000}
.path-edge-sec-6 {marker-end:url(#arrow-6);stroke:#000000}
.rect-edge-label-pri-6 {stroke:#000000}
.rect-edge-label-sec-6 {stroke:#000000}
.rect-node-background-6 {fill:#FFFFFF;opacity:0.2}
.rect-node-6 {stroke:#000000}
.path-edge-pri-7 {marker-end:url(#arrow-7);stroke:#000000}
.path-edge-sec-7 {marker-end:url(#arrow-7);stroke:#000000}
.rect-edge-label-pri-7 {stroke:#000000}
.rect-edge-label-sec-7 {stroke:#000000}
.rect-node-background-7 {fill:#FFFFFF;opacity:0.2}
.rect-node-7 {stroke:#000000}
.path-edge-pri-8 {marker-end:url(#arrow-8);stroke:#000000}
.path-edge-sec-8 {marker-end:url(#arrow-8);stroke:#000000}
.rect-edge-label-pri-8 {stroke:#000000}
.rect-edge-label-sec-8 {stroke:#000000}
.rect-node-background-8 {fill:#FFFFFF;opacity:0.2}
.rect-node-8 {stroke:#000000}
.path-edge-pri-9 {marker-end:url(#arrow-9);stroke:#000000}
.path-edge-sec-9 {marker-end:url(#arrow-9);stroke:#000000}
.rect-edge-label-pri-9 {stroke:#000000}
.rect-edge-label-sec-9 {stroke:#000000}
.rect-node-background-9 {fill:#FFFFFF;opacity:0.2}
.rect-node-9 {stroke:#000000}
.path-edge-pri-10 {marker-end:url(#arrow-10);stroke:#000000}
.path-edge-sec-10 {marker-end:url(#arrow-10);stroke:#000000}
.rect-edge-label-pri-10 {stroke:#000000}
.rect-edge-label-sec-10 {stroke:#000000}
.rect-node-background-10 {fill:#FFFFFF;opacity:0.2}
.rect-node-10 {stroke:#000000}
.path-edge-pri-11 {marker-end:url(#arrow-11);stroke:#000000}
.path-edge-sec-11 {marker-end:url(#arrow-11);stroke:#000000}
.rect-edge-label-pri-11 {stroke:#000000}
.rect-edge-label-sec-11 {stroke:#000000}
.rect-node-background-11 {fill:#FFFFFF;opacity:0.2}
.rect-node-11 {stroke:#000000}
.path-edge-pri-12 {marker-end:url(#arrow-12);stroke:#000000}
.path-edge-sec-12 {marker-end:url(#arrow-12);stroke:#000000}
.rect-edge-label-pri-12 {stroke:#000000}
.rect-edge-label-sec-12 {stroke:#000000}
.rect-node-background-12 {fill:#FFFFFF;opacity:0.2}
.rect-node-12 {stroke:#000000}
.path-edge-pri-13 {marker-end:url(#arrow-13);stroke:#000000}
.path-edge-sec-13 {marker-end:url(#arrow-13);stroke:#000000}
.rect-edge-label-pri-13 {stroke:#000000}
.rect-edge-label-sec-13 {stroke:#000000}
.rect-node-background-13 {fill:#FFFFFF;opacity:0.2}
.rect-node-13 {stroke:#000000}
.capigraph-rendering-stats {font-family:arial; font-weight:normal; font-size:10px; text-anchor:start; alignment-baseline:hanging; fill:transparent;}</style>
<rect class="viz-background" x="-10" y="-10" width="2715" height="2326"/>
<path class="path-edge-pri path-edge-pri-1" d="m1342.80,168.00 L1342.80,476.60"/>
<path class="path-edge-pri path-edge-pri-1" d="m1342.80,650.60 L443.70,889.00"/>
<path class="path-edge-pri path-edge-pri-1" d="m443.70,1063.00 L443.70,1301.40"/>
<path class="path-edge-pri path-edge-pri-1" d="m443.70,1475.40 L443.70,1713.80"/>
<path class="path-edge-pri path-edge-pri-1" d="m443.70,1887.80 L443.70,2126.20"/>
<path class="path-edge-pri path-edge-pri-1" d="m1342.80,650.60 L1343.80,889.00"/>
<path class="path-edge-pri path-edge-pri-1" d="m1343.80,1063.00 L1343.80,1301.40"/>
<path class="path-edge-pri path-edge-pri-1" d="m1343.80,1475.40 L1343.80,1713.80"/>
<path class="path-edge-pri path-edge-pri-1" d="m1343.80,1887.80 L1343.80,2126.20"/>
<path class="path-edge-pri path-edge-pri-1" d="m1342.80,650.60 L2242.90,889.00"/>
<path class="path-edge-pri path-edge-pri-1" d="m2242.90,1063.00 L2242.90,1301.40"/>
<path class="path-edge-pri path-edge-pri-1" d="m2242.90,1475.40 L2242.90,1713.80"/>
<a xlink:title="1 icon-database-table-read">
  <rect class="rect-node-background rect-node-background-1"  x="911.50" y="0.00" width="862.60" height="164.00"/>
  <rect class="rect-node rect-node-1"  x="911.50" y="0.00" width="862.60" height="164.00"/>
  <g transform="translate(931.50,20.00)"><g transform="scale(1.240000)">
    <use xlink:href="#icon-database-table-read" style="fill:#023EFF;"/>
  </g></g>
  <text class="text-node" x="1075.50" y="20.00">1_read_project_financials</text>
  <text class="text-node" x="1075.50" y="46.00">Read file project_budget.csv to table</text>
  <text class="text-node" x="1075.50" y="72.00">Processor: read from files into a table</text>
  <text class="text-node" x="1075.50" y="98.00">File(s): /tmp/capi_in/.../harvested_project_financials_quicktest.csv</text>
  <text class="text-node" x="1075.50" y="124.00">Table created: project_financials</text>
</a>
<a xlink:title="2 icon-database-table-py">
  <rect class="rect-node-background rect-node-background-1"  x="950.70" y="482.60" width="784.20" height="164.00"/>
  <rect class="rect-node rect-node-1"  x="950.70" y="482.60" width="784.20" height="164.00"/>
  <g transform="translate(970.70,502.60)"><g transform="scale(1.240000)">
    <use xlink:href="#icon-database-table-py" style="fill:#023EFF;"/>
  </g></g>
  <text class="text-node" x="1114.70" y="502.60">2_calc_quarterly_budget</text>
  <text class="text-node" x="1114.70" y="528.60">Calculate quarterly project budget for countries and sectors</text>
  <text class="text-node" x="1114.70" y="554.60">Processor: apply Python calculations</text>
  <text class="text-node" x="1114.70" y="580.60">Python file(s): /tmp/capi_cfg/.../calc_quarterly_budget.py</text>
  <text class="text-node" x="1114.70" y="606.60">Table created: quarterly_project_budget</text>
</a>
<a xlink:title="project_financials (10 batches)  amt country_amt_json end_date partner_id project_id sector_amt_json start_date">
  <rect class="rect-edge-label-background" x="1262.52" y="200.00" width="160.56" height="246.60"/>
  <rect class="rect-edge-label-pri rect-edge-label-pri-1" x="1262.52" y="200.00" width="160.56" height="246.60"/>
  <text class="text-edge-label" x="1271.52" y="209.00">project_financials</text>
  <text class="text-edge-label" x="1271.52" y="232.40">(10 batches)</text>
  <text class="text-edge-label" x="1271.52" y="255.80"></text>
  <text class="text-edge-label" x="1271.52" y="279.20">amt</text>
  <text class="text-edge-label" x="1271.52" y="302.60">country_amt_json</text>
  <text class="text-edge-label" x="1271.52" y="326.00">end_date</text>
  <text class="text-edge-label" x="1271.52" y="349.40">partner_id</text>
  <text class="text-edge-label" x="1271.52" y="372.80">project_id</text>
  <text class="text-edge-label" x="1271.52" y="396.20">sector_amt_json</text>
  <text class="text-edge-label" x="1271.52" y="419.60">start_date</text>
</a>
<a xlink:title="3 icon-database-table-tag">
  <rect class="rect-node-background rect-node-background-1"  x="43.40" y="895.00" width="800.60" height="164.00"/>
  <rect class="rect-node rect-node-1"  x="43.40" y="895.00" width="800.60" height="164.00"/>
  <g transform="translate(63.40,915.00)"><g transform="scale(1.240000)">
    <use xlink:href="#icon-database-table-tag" style="fill:#023EFF;"/>
  </g></g>
  <text class="text-node" x="207.40" y="915.00">3_tag_countries</text>
  <text class="text-node" x="207.40" y="941.00">Tag by country</text>
  <text class="text-node" x="207.40" y="967.00">Processor: tag and denormalize</text>
  <text class="text-node" x="207.40" y="993.00">Tag criteria URL: /tmp/capi_cfg/.../tag_criteria_country.json</text>
  <text class="text-node" x="207.40" y="1019.00">Table created: quarterly_project_budget_tagged_by_country</text>
</a>
<a xlink:title="quarterly_project_budget (10 batches)  country_budget_json project_id">
  <rect class="rect-edge-label-background" x="699.56" y="729.40" width="217.98" height="129.60"/>
  <rect class="rect-edge-label-pri rect-edge-label-pri-1" x="699.56" y="729.40" width="217.98" height="129.60"/>
  <text class="text-edge-label" x="708.56" y="738.40">quarterly_project_budget</text>
  <text class="text-edge-label" x="708.56" y="761.80">(10 batches)</text>
  <text class="text-edge-label" x="708.56" y="785.20"></text>
  <text class="text-edge-label" x="708.56" y="808.60">country_budget_json</text>
  <text class="text-edge-label" x="708.56" y="832.00">project_id</text>
</a>
<a xlink:title="5 icon-database-table-tag">
  <rect class="rect-node-background rect-node-background-1"  x="0.00" y="1307.40" width="887.40" height="164.00"/>
  <rect class="rect-node rect-node-1"  x="0.00" y="1307.40" width="887.40" height="164.00"/>
  <g transform="translate(20.00,1327.40)"><g transform="scale(1.240000)">
    <use xlink:href="#icon-database-table-tag" style="fill:#023EFF;"/>
  </g></g>
  <text class="text-node" x="164.00" y="1327.40">4_tag_countries_quarter</text>
  <text class="text-node" x="164.00" y="1353.40">Tag by country and quarter</text>
  <text class="text-node" x="164.00" y="1379.40">Processor: tag and denormalize</text>
  <text class="text-node" x="164.00" y="1405.40">Tag criteria URL: /tmp/capi_cfg/.../tag_criteria_country_quarter.json</text>
  <text class="text-node" x="164.00" y="1431.40">Table created: quarterly_project_budget_tagged_by_country_quarter</text>
</a>
<a xlink:title="quarterly_project_budget_tagged_by_country (10 batches)  country country_budget_json project_id">
  <rect class="rect-edge-label-background" x="252.72" y="1118.40" width="381.96" height="153.00"/>
  <rect class="rect-edge-label-pri rect-edge-label-pri-1" x="252.72" y="1118.40" width="381.96" height="153.00"/>
  <text class="text-edge-label" x="261.72" y="1127.40">quarterly_project_budget_tagged_by_country</text>
  <text class="text-edge-label" x="261.72" y="1150.80">(10 batches)</text>
  <text class="text-edge-label" x="261.72" y="1174.20"></text>
  <text class="text-edge-label" x="261.72" y="1197.60">country</text>
  <text class="text-edge-label" x="261.72" y="1221.00">country_budget_json</text>
  <text class="text-edge-label" x="261.72" y="1244.40">project_id</text>
</a>
<a xlink:title="8 icon-database-table-py">
  <rect class="rect-node-background rect-node-background-1"  x="71.40" y="1719.80" width="744.60" height="164.00"/>
  <rect class="rect-node rect-node-1"  x="71.40" y="1719.80" width="744.60" height="164.00"/>
  <g transform="translate(91.40,1739.80)"><g transform="scale(1.240000)">
    <use xlink:href="#icon-database-table-py" style="fill:#023EFF;"/>
  </g></g>
  <text class="text-node" x="235.40" y="1739.80">5_project_country_quarter_amt</text>
  <text class="text-node" x="235.40" y="1765.80">Get country quarter amount</text>
  <text class="text-node" x="235.40" y="1791.80">Processor: apply Python calculations</text>
  <text class="text-node" x="235.40" y="1817.80">Python file(s): /tmp/capi_cfg/.../get_amt_from_json.py</text>
  <text class="text-node" x="235.40" y="1843.80">Table created: project_country_quarter_amt</text>
</a>
<a xlink:title="quarterly_project_budget_tagged_by_country_quarter (10 batches)  country country_budget_json project_id quarter">
  <rect class="rect-edge-label-background" x="219.06" y="1507.40" width="449.28" height="176.40"/>
  <rect class="rect-edge-label-pri rect-edge-label-pri-1" x="219.06" y="1507.40" width="449.28" height="176.40"/>
  <text class="text-edge-label" x="228.06" y="1516.40">quarterly_project_budget_tagged_by_country_quarter</text>
  <text class="text-edge-label" x="228.06" y="1539.80">(10 batches)</text>
  <text class="text-edge-label" x="228.06" y="1563.20"></text>
  <text class="text-edge-label" x="228.06" y="1586.60">country</text>
  <text class="text-edge-label" x="228.06" y="1610.00">country_budget_json</text>
  <text class="text-edge-label" x="228.06" y="1633.40">project_id</text>
  <text class="text-edge-label" x="228.06" y="1656.80">quarter</text>
</a>
<a xlink:title="11 icon-csv">
  <rect class="rect-node-background rect-node-background-1"  x="52.20" y="2132.20" width="783.00" height="164.00"/>
  <rect class="rect-node rect-node-1"  x="52.20" y="2132.20" width="783.00" height="164.00"/>
  <g transform="translate(72.20,2152.20)"><g transform="scale(1.240000)">
    <use xlink:href="#icon-csv" style="fill:#023EFF;"/>
  </g></g>
  <text class="text-node" x="216.20" y="2152.20">6_file_project_country_quarter_amt</text>
  <text class="text-node" x="216.20" y="2178.20">Write project_country_quarter_amt.csv</text>
  <text class="text-node" x="216.20" y="2204.20">Processor: read from table into files</text>
  <text class="text-node" x="216.20" y="2230.20">Source table: project_country_quarter_amt</text>
  <text class="text-node" x="216.20" y="2256.20">File(s): /tmp/capi_out/.../project_country_quarter_amt.csv</text>
</a>
<a xlink:title="project_country_quarter_amt (no parallelism)  amt country project_id quarter">
  <rect class="rect-edge-label-background" x="319.23" y="1919.80" width="248.94" height="176.40"/>
  <rect class="rect-edge-label-pri rect-edge-label-pri-1" x="319.23" y="1919.80" width="248.94" height="176.40"/>
  <text class="text-edge-label" x="328.23" y="1928.80">project_country_quarter_amt</text>
  <text class="text-edge-label" x="328.23" y="1952.20">(no parallelism)</text>
  <text class="text-edge-label" x="328.23" y="1975.60"></text>
  <text class="text-edge-label" x="328.23" y="1999.00">amt</text>
  <text class="text-edge-label" x="328.23" y="2022.40">country</text>
  <text class="text-edge-label" x="328.23" y="2045.80">project_id</text>
  <text class="text-edge-label" x="328.23" y="2069.20">quarter</text>
</a>
<a xlink:title="4 icon-database-table-tag">
  <rect class="rect-node-background rect-node-background-1"  x="950.80" y="895.00" width="786.00" height="164.00"/>
  <rect class="rect-node rect-node-1"  x="950.80" y="895.00" width="786.00" height="164.00"/>
  <g transform="translate(970.80,915.00)"><g transform="scale(1.240000)">
    <use xlink:href="#icon-database-table-tag" style="fill:#023EFF;"/>
  </g></g>
  <text class="text-node" x="1114.80" y="915.00">3_tag_sectors</text>
  <text class="text-node" x="1114.80" y="941.00">Tag by sector</text>
  <text class="text-node" x="1114.80" y="967.00">Processor: tag and denormalize</text>
  <text class="text-node" x="1114.80" y="993.00">Tag criteria URL: /tmp/capi_cfg/.../tag_criteria_sector.json</text>
  <text class="text-node" x="1114.80" y="1019.00">Table created: quarterly_project_budget_tagged_by_sector</text>
</a>
<a xlink:title="quarterly_project_budget (10 batches)  project_id sector_budget_json">
  <rect class="rect-edge-label-background" x="1234.40" y="729.40" width="217.98" height="129.60"/>
  <rect class="rect-edge-label-pri rect-edge-label-pri-1" x="1234.40" y="729.40" width="217.98" height="129.60"/>
  <text class="text-edge-label" x="1243.40" y="738.40">quarterly_project_budget</text>
  <text class="text-edge-label" x="1243.40" y="761.80">(10 batches)</text>
  <text class="text-edge-label" x="1243.40" y="785.20"></text>
  <text class="text-edge-label" x="1243.40" y="808.60">project_id</text>
  <text class="text-edge-label" x="1243.40" y="832.00">sector_budget_json</text>
</a>
<a xlink:title="7 icon-database-table-tag">
  <rect class="rect-node-background rect-node-background-1"  x="907.40" y="1307.40" width="872.80" height="164.00"/>
  <rect class="rect-node rect-node-1"  x="907.40" y="1307.40" width="872.80" height="164.00"/>
  <g transform="translate(927.40,1327.40)"><g transform="scale(1.240000)">
    <use xlink:href="#icon-database-table-tag" style="fill:#023EFF;"/>
  </g></g>
  <text class="text-node" x="1071.40" y="1327.40">4_tag_sectors_quarter</text>
  <text class="text-node" x="1071.40" y="1353.40">Tag by sector and quarter</text>
  <text class="text-node" x="1071.40" y="1379.40">Processor: tag and denormalize</text>
  <text class="text-node" x="1071.40" y="1405.40">Tag criteria URL: /tmp/capi_cfg/.../tag_criteria_sector_quarter.json</text>
  <text class="text-node" x="1071.40" y="1431.40">Table created: quarterly_project_budget_tagged_by_sector_quarter</text>
</a>
<a xlink:title="quarterly_project_budget_tagged_by_sector (10 batches)  project_id sector sector_budget_json">
  <rect class="rect-edge-label-background" x="1157.86" y="1118.40" width="371.88" height="153.00"/>
  <rect class="rect-edge-label-pri rect-edge-label-pri-1" x="1157.86" y="1118.40" width="371.88" height="153.00"/>
  <text class="text-edge-label" x="1166.86" y="1127.40">quarterly_project_budget_tagged_by_sector</text>
  <text class="text-edge-label" x="1166.86" y="1150.80">(10 batches)</text>
  <text class="text-edge-label" x="1166.86" y="1174.20"></text>
  <text class="text-edge-label" x="1166.86" y="1197.60">project_id</text>
  <text class="text-edge-label" x="1166.86" y="1221.00">sector</text>
  <text class="text-edge-label" x="1166.86" y="1244.40">sector_budget_json</text>
</a>
<a xlink:title="10 icon-database-table-py">
  <rect class="rect-node-background rect-node-background-1"  x="971.50" y="1719.80" width="744.60" height="164.00"/>
  <rect class="rect-node rect-node-1"  x="971.50" y="1719.80" width="744.60" height="164.00"/>
  <g transform="translate(991.50,1739.80)"><g transform="scale(1.240000)">
    <use xlink:href="#icon-database-table-py" style="fill:#023EFF;"/>
  </g></g>
  <text class="text-node" x="1135.50" y="1739.80">5_project_sector_quarter_amt</text>
  <text class="text-node" x="1135.50" y="1765.80">Get sector quarter amount</text>
  <text class="text-node" x="1135.50" y="1791.80">Processor: apply Python calculations</text>
  <text class="text-node" x="1135.50" y="1817.80">Python file(s): /tmp/capi_cfg/.../get_amt_from_json.py</text>
  <text class="text-node" x="1135.50" y="1843.80">Table created: project_sector_quarter_amt</text>
</a>
<a xlink:title="quarterly_project_budget_tagged_by_sector_quarter (10 batches)  project_id quarter sector sector_budget_json">
  <rect class="rect-edge-label-background" x="1124.20" y="1507.40" width="439.20" height="176.40"/>
  <rect class="rect-edge-label-pri rect-edge-label-pri-1" x="1124.20" y="1507.40" width="439.20" height="176.40"/>
  <text class="text-edge-label" x="1133.20" y="1516.40">quarterly_project_budget_tagged_by_sector_quarter</text>
  <text class="text-edge-label" x="1133.20" y="1539.80">(10 batches)</text>
  <text class="text-edge-label" x="1133.20" y="1563.20"></text>
  <text class="text-edge-label" x="1133.20" y="1586.60">project_id</text>
  <text class="text-edge-label" x="1133.20" y="1610.00">quarter</text>
  <text class="text-edge-label" x="1133.20" y="1633.40">sector</text>
  <text class="text-edge-label" x="1133.20" y="1656.80">sector_budget_json</text>
</a>
<a xlink:title="13 icon-csv">
  <rect class="rect-node-background rect-node-background-1"  x="959.60" y="2132.20" width="768.40" height="164.00"/>
  <rect class="rect-node rect-node-1"  x="959.60" y="2132.20" width="768.40" height="164.00"/>
  <g transform="translate(979.60,2152.20)"><g transform="scale(1.240000)">
    <use xlink:href="#icon-csv" style="fill:#023EFF;"/>
  </g></g>
  <text class="text-node" x="1123.60" y="2152.20">6_file_project_sector_quarter_amt</text>
  <text class="text-node" x="1123.60" y="2178.20">Write project_sector_quarter_amt.csv</text>
  <text class="text-node" x="1123.60" y="2204.20">Processor: read from table into files</text>
  <text class="text-node" x="1123.60" y="2230.20">Source table: project_sector_quarter_amt</text>
  <text class="text-node" x="1123.60" y="2256.20">File(s): /tmp/capi_out/.../project_sector_quarter_amt.csv</text>
</a>
<a xlink:title="project_sector_quarter_amt (no parallelism)  amt project_id quarter sector">
  <rect class="rect-edge-label-background" x="1224.37" y="1919.80" width="238.86" height="176.40"/>
  <rect class="rect-edge-label-pri rect-edge-label-pri-1" x="1224.37" y="1919.80" width="238.86" height="176.40"/>
  <text class="text-edge-label" x="1233.37" y="1928.80">project_sector_quarter_amt</text>
  <text class="text-edge-label" x="1233.37" y="1952.20">(no parallelism)</text>
  <text class="text-edge-label" x="1233.37" y="1975.60"></text>
  <text class="text-edge-label" x="1233.37" y="1999.00">amt</text>
  <text class="text-edge-label" x="1233.37" y="2022.40">project_id</text>
  <text class="text-edge-label" x="1233.37" y="2045.80">quarter</text>
  <text class="text-edge-label" x="1233.37" y="2069.20">sector</text>
</a>
<a xlink:title="6 icon-database-table-tag">
  <rect class="rect-node-background rect-node-background-1"  x="1800.20" y="895.00" width="885.40" height="164.00"/>
  <rect class="rect-node rect-node-1"  x="1800.20" y="895.00" width="885.40" height="164.00"/>
  <g transform="translate(1820.20,915.00)"><g transform="scale(1.240000)">
    <use xlink:href="#icon-database-table-tag" style="fill:#023EFF;"/>
  </g></g>
  <text class="text-node" x="1964.20" y="915.00">4_tag_partners_quarter</text>
  <text class="text-node" x="1964.20" y="941.00">Tag by partner and quarter</text>
  <text class="text-node" x="1964.20" y="967.00">Processor: tag and denormalize</text>
  <text class="text-node" x="1964.20" y="993.00">Tag criteria URL: /tmp/capi_cfg/.../tag_criteria_partner_quarter.json</text>
  <text class="text-node" x="1964.20" y="1019.00">Table created: quarterly_project_budget_tagged_by_partner_quarter</text>
</a>
<a xlink:title="quarterly_project_budget (10 batches)  country_budget_json partner_budget_json partner_id project_id">
  <rect class="rect-edge-label-background" x="1683.86" y="682.60" width="217.98" height="176.40"/>
  <rect class="rect-edge-label-pri rect-edge-label-pri-1" x="1683.86" y="682.60" width="217.98" height="176.40"/>
  <text class="text-edge-label" x="1692.86" y="691.60">quarterly_project_budget</text>
  <text class="text-edge-label" x="1692.86" y="715.00">(10 batches)</text>
  <text class="text-edge-label" x="1692.86" y="738.40"></text>
  <text class="text-edge-label" x="1692.86" y="761.80">country_budget_json</text>
  <text class="text-edge-label" x="1692.86" y="785.20">partner_budget_json</text>
  <text class="text-edge-label" x="1692.86" y="808.60">partner_id</text>
  <text class="text-edge-label" x="1692.86" y="832.00">project_id</text>
</a>
<a xlink:title="9 icon-database-table-py">
  <rect class="rect-node-background rect-node-background-1"  x="1870.60" y="1307.40" width="744.60" height="164.00"/>
  <rect class="rect-node rect-node-1"  x="1870.60" y="1307.40" width="744.60" height="164.00"/>
  <g transform="translate(1890.60,1327.40)"><g transform="scale(1.240000)">
    <use xlink:href="#icon-database-table-py" style="fill:#023EFF;"/>
  </g></g>
  <text class="text-node" x="2034.60" y="1327.40">5_project_partner_quarter_amt</text>
  <text class="text-node" x="2034.60" y="1353.40">Get partner quarter amount</text>
  <text class="text-node" x="2034.60" y="1379.40">Processor: apply Python calculations</text>
  <text class="text-node" x="2034.60" y="1405.40">Python file(s): /tmp/capi_cfg/.../get_amt_from_json.py</text>
  <text class="text-node" x="2034.60" y="1431.40">Table created: project_partner_quarter_amt</text>
</a>
<a xlink:title="quarterly_project_budget_tagged_by_partner_quarter (10 batches)  partner_budget_json partner_id project_id quarter">
  <rect class="rect-edge-label-background" x="2019.25" y="1095.00" width="447.30" height="176.40"/>
  <rect class="rect-edge-label-pri rect-edge-label-pri-1" x="2019.25" y="1095.00" width="447.30" height="176.40"/>
  <text class="text-edge-label" x="2028.25" y="1104.00">quarterly_project_budget_tagged_by_partner_quarter</text>
  <text class="text-edge-label" x="2028.25" y="1127.40">(10 batches)</text>
  <text class="text-edge-label" x="2028.25" y="1150.80"></text>
  <text class="text-edge-label" x="2028.25" y="1174.20">partner_budget_json</text>
  <text class="text-edge-label" x="2028.25" y="1197.60">partner_id</text>
  <text class="text-edge-label" x="2028.25" y="1221.00">project_id</text>
  <text class="text-edge-label" x="2028.25" y="1244.40">quarter</text>
</a>
<a xlink:title="12 icon-csv">
  <rect class="rect-node-background rect-node-background-1"  x="1852.40" y="1719.80" width="781.00" height="164.00"/>
  <rect class="rect-node rect-node-1"  x="1852.40" y="1719.80" width="781.00" height="164.00"/>
  <g transform="translate(1872.40,1739.80)"><g transform="scale(1.240000)">
    <use xlink:href="#icon-csv" style="fill:#023EFF;"/>
  </g></g>
  <text class="text-node" x="2016.40" y="1739.80">6_file_project_partner_quarter_amt</text>
  <text class="text-node" x="2016.40" y="1765.80">Write project_partner_quarter_amt.csv</text>
  <text class="text-node" x="2016.40" y="1791.80">Processor: read from table into files</text>
  <text class="text-node" x="2016.40" y="1817.80">Source table: project_partner_quarter_amt</text>
  <text class="text-node" x="2016.40" y="1843.80">File(s): /tmp/capi_out/.../project_partner_quarter_amt.csv</text>
</a>
<a xlink:title="project_partner_quarter_amt (no parallelism)  amt partner_id project_id quarter">
  <rect class="rect-edge-label-background" x="2119.42" y="1507.40" width="246.96" height="176.40"/>
  <rect class="rect-edge-label-pri rect-edge-label-pri-1" x="2119.42" y="1507.40" width="246.96" height="176.40"/>
  <text class="text-edge-label" x="2128.42" y="1516.40">project_partner_quarter_amt</text>
  <text class="text-edge-label" x="2128.42" y="1539.80">(no parallelism)</text>
  <text class="text-edge-label" x="2128.42" y="1563.20"></text>
  <text class="text-edge-label" x="2128.42" y="1586.60">amt</text>
  <text class="text-edge-label" x="2128.42" y="1610.00">partner_id</text>
  <text class="text-edge-label" x="2128.42" y="1633.40">project_id</text>
  <text class="text-edge-label" x="2128.42" y="1656.80">quarter</text>
</a>
<text class="capigraph-rendering-stats" x="0" y="0">Perms 6, elapsed 0.000s, dist 0.0</text>
</svg>